<?xml version="1.0" encoding="UTF-8"?>
<svg version="1.1" xmlns="http://www.w3.org/2000/svg" width="335" height="334">
<path d="M0 0 C0.75168457 0.18191895 1.50336914 0.36383789 2.27783203 0.55126953 C13.29025787 3.25425363 23.13751714 7.43235293 33 13 C33.67981934 13.38317383 34.35963867 13.76634766 35.06005859 14.16113281 C44.82690899 19.75990574 53.01114732 26.10053308 61 34 C61.91136719 34.83917969 62.82273437 35.67835937 63.76171875 36.54296875 C78.28541698 50.23792528 88.65021436 67.70901221 95.75 86.25 C96.01981689 86.93884277 96.28963379 87.62768555 96.56762695 88.33740234 C101.75179124 102.59984878 103.65898223 117.17296976 103.46655273 132.27197266 C103.43733567 134.76401616 103.44606791 137.25394774 103.45898438 139.74609375 C103.44570345 149.86790479 102.43966629 159.16478428 100 169 C99.81735596 169.76699219 99.63471191 170.53398437 99.4465332 171.32421875 C94.5130156 190.80823759 84.79658693 209.83716577 70.875 224.375 C68.26088428 227.25113664 68.02011293 227.75059963 67.6875 231.875 C67.77644531 232.86113281 67.77644531 232.86113281 67.8671875 233.8671875 C68.33788692 241.4260664 65.649924 248.17064922 61 254 C55.43113944 259.56886056 48.67855613 262.23240028 40.875 262.4375 C32.46018578 262.10687992 26.78658804 258.91613851 21 253 C14.60046794 244.69790435 13.97467521 236.21096646 15 226 C16.97914567 219.42549894 20.22021472 214.66794066 26 211 C34.75695736 206.63040261 44.60085389 207.25263251 54 209 C63.46501778 197.38689308 71.20825149 184.25300703 76 170 C76.27328125 169.23816406 76.5465625 168.47632813 76.828125 167.69140625 C84.73431294 142.84892354 82.50880026 111.85820146 71.171875 88.51953125 C69.43093637 84.77651321 68.22663026 80.93812872 67 77 C66.34 77 65.68 77 65 77 C64.77828125 76.51273437 64.5565625 76.02546875 64.328125 75.5234375 C52.12580529 51.20722068 27.32432948 34.71059579 2.296875 25.94140625 C-24.51286219 17.20073752 -57.22511132 16.52827967 -83 29 C-83.58120605 29.27827637 -84.16241211 29.55655273 -84.76123047 29.84326172 C-112.32519757 43.2236175 -134.08761119 65.05375988 -144.7890625 94.14501953 C-146.35245734 98.71897798 -147.70390674 103.34310677 -149 108 C-149.52980469 109.71509766 -149.52980469 109.71509766 -150.0703125 111.46484375 C-157.21321141 138.62586691 -150.55819785 167.59465208 -138 192 C-135.87854677 195.54935444 -133.61781595 198.80572199 -131 202 C-128 205.75345622 -128 205.75345622 -128 208 C-127.34 208 -126.68 208 -126 208 C-121 213.47619048 -121 213.47619048 -121 216 C-120.34 216 -119.68 216 -119 216 C-119 216.66 -119 217.32 -119 218 C-118.34 218 -117.68 218 -117 218 C-117 218.66 -117 219.32 -117 220 C-116.34 220 -115.68 220 -115 220 C-115 220.66 -115 221.32 -115 222 C-113.35 222.66 -111.7 223.32 -110 224 C-110 224.66 -110 225.32 -110 226 C-109.43796875 226.27070313 -108.8759375 226.54140625 -108.296875 226.8203125 C-105.87067371 228.06642268 -103.57346639 229.44688212 -101.25 230.875 C-96.03024472 234.02844152 -90.80756526 237.06414491 -85 239 C-85 239.66 -85 240.32 -85 241 C-84.34773438 241.12117187 -83.69546875 241.24234375 -83.0234375 241.3671875 C-75.60476582 242.78964667 -75.60476582 242.78964667 -72.125 244 C-67.19777588 245.57671172 -62.10603443 246.22335399 -57 247 C-57.56760761 244.18536846 -57.84310431 243.15689569 -59.9375 241.0625 C-62.29008486 238.70991514 -63.1766263 237.21864266 -64 234 C-63.80152015 228.54180426 -62.38662811 225.25747534 -59 221 C-55.88094413 218.15498394 -53.76610083 217.60461391 -49.578125 217.48828125 C-48.65418945 217.45516846 -47.73025391 217.42205566 -46.77832031 217.38793945 C-45.03180176 217.35059692 -45.03180176 217.35059692 -43.25 217.3125 C-39.5375 217.209375 -35.825 217.10625 -32 217 C-32 208.09 -32 199.18 -32 190 C-34.32095703 190.02618408 -36.64191406 190.05236816 -39.03320312 190.0793457 C-46.72045655 190.16236965 -54.4077303 190.2174933 -62.09531403 190.25906086 C-66.75421457 190.28510219 -71.41265391 190.32039962 -76.07128906 190.37719727 C-80.57116702 190.43171307 -85.0706027 190.4614616 -89.57078552 190.47438622 C-91.28355365 190.48359113 -92.99629885 190.50156637 -94.70887756 190.52865028 C-111.30183224 190.78051389 -111.30183224 190.78051389 -118 185 C-120.05859375 182.90234375 -120.05859375 182.90234375 -121.4375 180.9375 C-122.14712891 179.96103516 -122.14712891 179.96103516 -122.87109375 178.96484375 C-124.95506123 175.33773079 -125.13030766 171.90467586 -125.16113281 167.77587891 C-125.17074036 166.73444733 -125.1803479 165.69301575 -125.19024658 164.62002563 C-125.19449646 163.5001828 -125.19874634 162.38033997 -125.203125 161.2265625 C-125.20882507 160.07006195 -125.21452515 158.9135614 -125.22039795 157.72201538 C-125.22984119 155.27594923 -125.23637924 152.8298704 -125.24023438 150.38378906 C-125.24994477 146.64625846 -125.28097737 142.90927669 -125.3125 139.171875 C-125.31902983 136.7942741 -125.32428038 134.41666926 -125.328125 132.0390625 C-125.3404718 130.92326813 -125.3528186 129.80747375 -125.36553955 128.65786743 C-125.34211066 120.47843379 -123.74697067 115.06624682 -118 109 C-111.61008019 104.18772936 -105.85896174 104.51951904 -98.0625 104.75 C-96.90169922 104.76804687 -95.74089844 104.78609375 -94.54492188 104.8046875 C-91.69575253 104.85158741 -88.84831469 104.91720941 -86 105 C-86.01571045 103.72882324 -86.0314209 102.45764648 -86.04760742 101.14794922 C-86.1020325 96.41803356 -86.13639592 91.68814544 -86.16479492 86.95800781 C-86.17985288 84.91336406 -86.20030357 82.86875245 -86.22631836 80.82421875 C-86.26283311 77.88012748 -86.27975651 74.93646443 -86.29296875 71.9921875 C-86.31619453 70.6277803 -86.31619453 70.6277803 -86.33988953 69.23580933 C-86.34124448 64.09066198 -86.08823734 60.32533941 -83 56 C-78.13925492 51.43933736 -74.1205433 50.26936507 -67.57373047 50.38476562 C-66.76143982 50.37921661 -65.94914917 50.3736676 -65.11224365 50.36795044 C-62.44661115 50.35620867 -59.78269919 50.38036818 -57.1171875 50.40625 C-55.25587033 50.40796234 -53.39455076 50.40789417 -51.53323364 50.40612793 C-47.64122298 50.40777794 -43.74979057 50.42642039 -39.85791016 50.45800781 C-34.87329524 50.49773966 -29.88943498 50.50204466 -24.9046917 50.49454498 C-21.06475937 50.49147388 -17.22499623 50.50359991 -13.38510513 50.52067566 C-11.54713121 50.52769731 -9.70913811 50.53083121 -7.87115097 50.52998352 C-5.3029088 50.53178404 -2.73556669 50.55318533 -0.16748047 50.58007812 C0.96725204 50.57568222 0.96725204 50.57568222 2.12490845 50.57119751 C6.59712171 50.64334444 9.45977968 51.22407759 13 54 C18.03879726 59.45182152 18.73837054 65.02111549 18.70703125 72.1875 C18.72215256 73.13061035 18.73727386 74.0737207 18.75285339 75.04541016 C18.79552569 78.03052055 18.80454861 81.01461577 18.8125 84 C18.83566021 86.03518285 18.86102869 88.07034185 18.88867188 90.10546875 C18.95132209 95.07040144 18.98381711 100.03470724 19 105 C19.68787598 104.97240601 20.37575195 104.94481201 21.08447266 104.91638184 C23.88929426 104.81073225 26.69389575 104.74997688 29.5 104.6875 C30.48226562 104.64560547 31.46453125 104.60371094 32.4765625 104.56054688 C39.07345665 104.45059864 44.06800129 105.31585391 49 110 C49 110.66 49 111.32 49 112 C49.66 112 50.32 112 51 112 C55.60488422 118.36250861 55.6136551 123.91794273 55.6015625 131.6171875 C55.61013275 132.82891632 55.618703 134.04064514 55.62753296 135.28909302 C55.63899127 137.84586087 55.6400409 140.40269391 55.63134766 142.95947266 C55.6250314 146.85563262 55.67195937 150.7487469 55.72265625 154.64453125 C55.72720323 157.13541286 55.72860877 159.62630258 55.7265625 162.1171875 C55.74498199 163.27370819 55.76340149 164.43022888 55.78237915 165.62179565 C55.69610712 173.22496327 54.27828851 178.37027517 49 184 C43.86852752 187.95281857 39.44297771 190.12940188 32.88598633 190.11352539 C31.84513382 190.11344986 30.80428131 190.11337433 29.73188782 190.11329651 C28.60993515 190.10813522 27.48798248 190.10297394 26.33203125 190.09765625 C25.18208176 190.0962413 24.03213226 190.09482635 22.84733582 190.09336853 C19.16903092 190.08776429 15.49078655 190.07521104 11.8125 190.0625 C9.32096442 190.05748555 6.82942789 190.05292255 4.33789062 190.04882812 C-1.77476029 190.03779347 -7.88737582 190.02105118 -14 190 C-13.97905273 191.25135742 -13.95810547 192.50271484 -13.93652344 193.79199219 C-13.86410606 198.43608145 -13.81819382 203.08012083 -13.78027344 207.72460938 C-13.76016195 209.73446038 -13.73286885 211.74425291 -13.69824219 213.75390625 C-13.64970366 216.64337596 -13.62702678 219.53207191 -13.609375 222.421875 C-13.58872986 223.31992859 -13.56808472 224.21798218 -13.54681396 225.14324951 C-13.54456838 231.39090961 -13.54456838 231.39090961 -15.88500977 234.52099609 C-20.90211277 238.02943543 -25.31291376 238.26440057 -31.3125 238.125 C-32.05306641 238.11597656 -32.79363281 238.10695313 -33.55664062 238.09765625 C-35.37123467 238.07424213 -37.18566071 238.03837615 -39 238 C-38.67 238.66 -38.34 239.32 -38 240 C-37.84840597 242.76367582 -37.76858607 245.48532157 -37.75 248.25 C-37.7190625 249.37728516 -37.7190625 249.37728516 -37.6875 250.52734375 C-37.64713179 256.31009018 -38.68416925 260.43700401 -42.68359375 264.86328125 C-43.26238281 265.34152344 -43.84117187 265.81976563 -44.4375 266.3125 C-45.01371094 266.80363281 -45.58992187 267.29476563 -46.18359375 267.80078125 C-52.79229246 272.16394362 -62.20275689 270.30166437 -69.49194336 268.82226562 C-103.86276819 261.271894 -133.74480263 240.70767048 -153.23754883 211.25512695 C-161.07107675 198.87429395 -167.4210883 185.22046296 -171 171 C-171.28359375 169.96488281 -171.5671875 168.92976562 -171.859375 167.86328125 C-178.5673936 142.64492831 -176.69632742 113.42801169 -168 89 C-167.73525879 88.2471875 -167.47051758 87.494375 -167.19775391 86.71875 C-163.7582924 77.05847192 -159.99798663 68.38742846 -154 60 C-152.92492187 58.39125 -152.92492187 58.39125 -151.828125 56.75 C-139.67524921 38.77925815 -124.66505483 25.02616505 -106 14 C-104.71802734 13.18015625 -104.71802734 13.18015625 -103.41015625 12.34375 C-96.93611588 8.23058335 -90.23268261 5.51276297 -83 3 C-82.00484375 2.6390625 -81.0096875 2.278125 -79.984375 1.90625 C-54.60369607 -6.68413364 -25.77692031 -6.5780063 0 0 Z M-70 70 C-70 91.45 -70 112.9 -70 135 C-46.24 135 -22.48 135 2 135 C2 113.55 2 92.1 2 70 C-21.76 70 -45.52 70 -70 70 Z M-86 161 C-86.66743877 163.58655333 -86.66743877 163.58655333 -86 166 C-84.47337759 167.93549124 -83.58223497 168.88287626 -81.13717556 169.37473011 C-80.08331457 169.3744785 -80.08331457 169.3744785 -79.00816345 169.3742218 C-78.19917099 169.38123611 -77.39017853 169.38825043 -76.55667114 169.39547729 C-75.67292816 169.38783356 -74.78918518 169.38018982 -73.87866211 169.37231445 C-72.47830971 169.37779045 -72.47830971 169.37779045 -71.04966736 169.38337708 C-67.95870874 169.39149415 -64.86827241 169.37786373 -61.77734375 169.36328125 C-59.63407898 169.36276283 -57.49081373 169.36327984 -55.34754944 169.36479187 C-50.85426746 169.3647021 -46.36116472 169.35426146 -41.86791992 169.33618164 C-36.09832462 169.31348073 -30.32899104 169.31295232 -24.55936337 169.31969929 C-20.13368896 169.32303484 -15.70807461 169.31641722 -11.28241158 169.30657005 C-9.15446855 169.30271164 -7.02651885 169.30157248 -4.89857292 169.3031559 C-1.92956601 169.30352527 1.03910066 169.29094267 4.00805664 169.2746582 C5.33670746 169.27837433 5.33670746 169.27837433 6.69219971 169.28216553 C11.32639813 169.45899227 11.32639813 169.45899227 15 167 C15.58369443 163.58461856 15.58369443 163.58461856 15 160 C12.23765345 156.93201859 10.01292597 155.76200987 5.97766113 155.4853363 C4.37138492 155.45863038 2.76465108 155.4538468 1.15820312 155.46655273 C0.27792953 155.45793716 -0.60234406 155.44932159 -1.5092926 155.44044495 C-4.41274601 155.41778234 -7.31523453 155.42452392 -10.21875 155.43359375 C-12.23987108 155.42835857 -14.26098971 155.42208248 -16.28210449 155.41481018 C-20.51549792 155.40440563 -24.74855521 155.40896874 -28.98193359 155.42358398 C-34.40622263 155.44077811 -39.82945304 155.41726879 -45.25362396 155.38209438 C-49.42640193 155.36013243 -53.59892608 155.36155887 -57.77174377 155.3698597 C-59.77162335 155.37067975 -61.77152146 155.36380603 -63.77134705 155.34908867 C-66.5676277 155.33166358 -69.36199923 155.34616754 -72.15820312 155.36889648 C-72.98328873 155.35720428 -73.80837433 155.34551208 -74.65846252 155.33346558 C-80.10102284 155.42345218 -82.56560272 156.44434903 -86 161 Z M34.5 229.75 C32.81509993 231.82665619 32.81509993 231.82665619 33 234 C34.3777585 236.755517 35.47012082 238.18367649 38 240 C41.55622908 240.65245332 44.80629877 240.7087601 48 238.8125 C49.41113901 236.25481055 49.56152444 234.87781273 49 232 C46.23470989 228.89952321 44.56617832 228.07946362 40.4375 227.5 C36.9709806 227.74120527 36.9709806 227.74120527 34.5 229.75 Z " fill="#186CAA" transform="translate(202,40)"/>
<path d="M0 0 C0.33 0 0.66 0 1 0 C0.98428955 0.82910889 0.9685791 1.65821777 0.95239258 2.51245117 C0.29336898 42.7240136 6.66118908 78.88698155 34 110 C35.10794922 111.28970703 35.10794922 111.28970703 36.23828125 112.60546875 C40.23545619 117.22522667 40.23545619 117.22522667 45 121 C45 121.66 45 122.32 45 123 C45.58910156 123.27585937 46.17820313 123.55171875 46.78515625 123.8359375 C48.89442837 124.94451438 50.57909269 126.14324094 52.4375 127.625 C69.74493002 140.7010179 91.94804058 150.92581884 113.9375 151.375 C114.62779297 151.41238281 115.31808594 151.44976562 116.02929688 151.48828125 C119.96089785 151.5553607 122.01439344 150.99111434 125.37890625 148.9140625 C130.21551599 143.53684809 130.2487272 138.05308655 130.125 131.0625 C130.11597656 130.37865234 130.10695312 129.69480469 130.09765625 128.99023438 C130.07438958 127.32666713 130.03853167 125.66328369 130 124 C130.66 124 131.32 124 132 124 C131.67 123.01 131.34 122.02 131 121 C132.53655276 119.46344724 134.01010836 119.82021276 136.1484375 119.75390625 C136.98890625 119.72103516 137.829375 119.68816406 138.6953125 119.65429688 C140.47383755 119.59337073 142.25248982 119.53604626 144.03125 119.48242188 C144.87429687 119.44826172 145.71734375 119.41410156 146.5859375 119.37890625 C147.3598584 119.3538501 148.1337793 119.32879395 148.93115234 119.30297852 C151.30462525 119.10622971 151.30462525 119.10622971 154 117 C155.41745308 113.4532679 155.19210985 109.59122525 155.28125 105.8203125 C155.30886414 104.78473709 155.30886414 104.78473709 155.33703613 103.72824097 C155.39557279 101.52724417 155.44845146 99.32617085 155.5 97.125 C155.56808694 94.23162314 155.64181584 91.33846607 155.71875 88.4453125 C155.74904297 87.16156738 155.77933594 85.87782227 155.81054688 84.55517578 C156 81 156 81 157 75 C174.16 74.67 191.32 74.34 209 74 C209.33 74.99 209.66 75.98 210 77 C192.84 77 175.68 77 158 77 C158.15817085 90.64240822 158.15817085 90.64240822 158.36035156 104.28417969 C158.37203597 105.99673466 158.38222838 107.70930075 158.390625 109.421875 C158.41108887 110.3082666 158.43155273 111.1946582 158.45263672 112.10791016 C158.45619995 118.38988205 158.45619995 118.38988205 156.11499023 121.52099609 C151.09788723 125.02943543 146.68708624 125.26440057 140.6875 125.125 C139.94693359 125.11597656 139.20636719 125.10695313 138.44335938 125.09765625 C136.62876533 125.07424213 134.81433929 125.03837615 133 125 C133.33 125.66 133.66 126.32 134 127 C134.15159403 129.76367582 134.23141393 132.48532157 134.25 135.25 C134.2809375 136.37728516 134.2809375 136.37728516 134.3125 137.52734375 C134.35286821 143.31009018 133.31583075 147.43700401 129.31640625 151.86328125 C128.73761719 152.34152344 128.15882813 152.81976563 127.5625 153.3125 C126.98628906 153.80363281 126.41007813 154.29476562 125.81640625 154.80078125 C119.20770754 159.16394362 109.79724311 157.30166437 102.50805664 155.82226562 C68.13723181 148.271894 38.25519737 127.70767048 18.76245117 98.25512695 C10.92535418 85.86865307 4.59362282 72.22157117 1 58 C0.71640625 56.9996875 0.4328125 55.999375 0.140625 54.96875 C-1.74439897 48.06885093 -2.95128116 41.17384958 -3 34 C-2.505 33.505 -2.505 33.505 -2 33 C-1.97891234 30.09894002 -2.00701828 27.21225221 -2.0625 24.3125 C-2.15681676 16.00240756 -1.49657504 8.1910759 0 0 Z " fill="#1D3D6D" transform="translate(30,153)"/>
<path d="M0 0 C0.92860336 -0.00817749 1.85720673 -0.01635498 2.81394958 -0.02478027 C5.89573517 -0.04965106 8.97747466 -0.06615404 12.05932617 -0.08056641 C13.11037725 -0.08589008 14.16142834 -0.09121376 15.24432945 -0.09669876 C20.8067591 -0.12343683 26.36916624 -0.14281021 31.93164062 -0.15722656 C37.68209843 -0.1738819 43.43198396 -0.21866557 49.18222523 -0.26959801 C53.59942802 -0.30322382 58.01649417 -0.31479887 62.4338131 -0.32045364 C64.55374211 -0.32717831 66.67366176 -0.34243176 68.79346657 -0.36634445 C71.75992353 -0.39790019 74.7248261 -0.39804709 77.69140625 -0.390625 C78.56795868 -0.40703033 79.44451111 -0.42343567 80.34762573 -0.44033813 C84.77528777 -0.39496481 86.48834222 -0.24654862 90.06669617 2.60482788 C92.83537695 6.23640764 93.58489774 8.68289157 93.03979492 13.19287109 C91.20536661 16.65748043 88.83869146 19.6316251 85.01273727 20.82530212 C82.6099402 21.06149421 80.29854265 21.07107295 77.88500977 21.00341797 C76.53271019 21.00736069 76.53271019 21.00736069 75.15309143 21.01138306 C72.18445519 21.01160404 69.21890389 20.96209204 66.25073242 20.91162109 C64.18382017 20.90109585 62.1168909 20.89352973 60.04995728 20.88879395 C54.61594831 20.86777078 49.18323324 20.80386087 43.74969482 20.73181152 C39.31135626 20.67998664 34.87310879 20.65798756 30.43453026 20.63768768 C21.26809243 20.59537561 12.10160611 20.53373439 2.93579102 20.41748047 C1.66707405 20.40637741 1.66707405 20.40637741 0.37272644 20.39505005 C-8.7548498 20.26047148 -8.7548498 20.26047148 -12.14770508 17.25537109 C-14.31372848 14.79058585 -14.90111623 13.71285293 -15.27270508 10.44287109 C-14.8824148 6.38385225 -13.4643313 4.35985426 -10.96020508 1.19287109 C-7.57483745 -0.49981272 -3.7253982 0.01798046 0 0 Z M-11.96020508 8.19287109 C-12.62764385 10.77942442 -12.62764385 10.77942442 -11.96020508 13.19287109 C-10.43358266 15.12836234 -9.54244005 16.07574735 -7.09738064 16.5676012 C-6.04351964 16.56734959 -6.04351964 16.56734959 -4.96836853 16.5670929 C-4.15937607 16.57410721 -3.35038361 16.58112152 -2.51687622 16.58834839 C-1.63313324 16.58070465 -0.74939026 16.57306091 0.16113281 16.56518555 C1.56148521 16.57066154 1.56148521 16.57066154 2.99012756 16.57624817 C6.08108618 16.58436525 9.17152251 16.57073482 12.26245117 16.55615234 C14.40571594 16.55563392 16.54898119 16.55615093 18.69224548 16.55766296 C23.18552746 16.55757319 27.6786302 16.54713256 32.171875 16.52905273 C37.9414703 16.50635182 43.71080388 16.50582341 49.48043156 16.51257038 C53.90610596 16.51590593 58.33172031 16.50928831 62.75738335 16.49944115 C64.88532637 16.49558273 67.01327607 16.49444357 69.141222 16.49602699 C72.11022891 16.49639637 75.07889558 16.48381377 78.04785156 16.4675293 C79.37650238 16.47124542 79.37650238 16.47124542 80.73199463 16.47503662 C85.36619305 16.65186336 85.36619305 16.65186336 89.03979492 14.19287109 C89.62348935 10.77748965 89.62348935 10.77748965 89.03979492 7.19287109 C86.27744837 4.12488969 84.0527209 2.95488097 80.01745605 2.6782074 C78.41117984 2.65150147 76.804446 2.64671789 75.19799805 2.65942383 C74.31772446 2.65080826 73.43745087 2.64219269 72.53050232 2.63331604 C69.62704892 2.61065343 66.72456039 2.61739502 63.82104492 2.62646484 C61.79992384 2.62122966 59.77880521 2.61495357 57.75769043 2.60768127 C53.52429701 2.59727672 49.29123971 2.60183983 45.05786133 2.61645508 C39.63357229 2.6336492 34.21034188 2.61013988 28.78617096 2.57496548 C24.61339299 2.55300353 20.44086885 2.55442996 16.26805115 2.56273079 C14.26817157 2.56355084 12.26827346 2.55667712 10.26844788 2.54195976 C7.47216723 2.52453468 4.67779569 2.53903863 1.8815918 2.56176758 C1.0565062 2.55007538 0.23142059 2.53838318 -0.6186676 2.52633667 C-6.06122792 2.61632327 -8.5258078 3.63722012 -11.96020508 8.19287109 Z " fill="#0F5993" transform="translate(127.960205078125,192.80712890625)"/>
<path d="M0 0 C0.33 0 0.66 0 1 0 C1.33 6.6 1.66 13.2 2 20 C2.33 20 2.66 20 3 20 C3.15855469 21.11375 3.31710938 22.2275 3.48046875 23.375 C6.68397937 44.77426192 13.08602805 65.02555819 26.703125 82.140625 C28 84 28 84 28 86 C28.66 86 29.32 86 30 86 C35 91.47619048 35 91.47619048 35 94 C35.66 94 36.32 94 37 94 C37 94.66 37 95.32 37 96 C37.66 96 38.32 96 39 96 C39 96.66 39 97.32 39 98 C39.66 98 40.32 98 41 98 C41 98.66 41 99.32 41 100 C42.65 100.66 44.3 101.32 46 102 C46 102.66 46 103.32 46 104 C46.84304687 104.40605469 46.84304687 104.40605469 47.703125 104.8203125 C50.12932629 106.06642268 52.42653361 107.44688212 54.75 108.875 C59.96975528 112.02844152 65.19243474 115.06414491 71 117 C71 117.66 71 118.32 71 119 C71.97839844 119.18175781 71.97839844 119.18175781 72.9765625 119.3671875 C80.39523418 120.78964667 80.39523418 120.78964667 83.875 122 C88.80222412 123.57671172 93.89396557 124.22335399 99 125 C98.43239239 122.18536846 98.15689569 121.15689569 96.0625 119.0625 C93.70991514 116.70991514 92.8233737 115.21864266 92 112 C92.19847985 106.54180426 93.61337189 103.25747534 97 99 C100.2039716 96.03058297 102.31556152 95.63801428 106.640625 95.70703125 C107.71054688 95.71669922 108.78046875 95.72636719 109.8828125 95.73632812 C111.54957031 95.7740332 111.54957031 95.7740332 113.25 95.8125 C114.93996094 95.83280273 114.93996094 95.83280273 116.6640625 95.85351562 C119.44319264 95.88884355 122.22135363 95.9381748 125 96 C125 96.99 125 97.98 125 99 C124.39526855 99.01458252 123.79053711 99.02916504 123.16748047 99.04418945 C120.40270735 99.11909188 117.63908643 99.21561073 114.875 99.3125 C113.92367187 99.33505859 112.97234375 99.35761719 111.9921875 99.38085938 C106.64879166 99.58494741 102.58854437 99.95350742 98 103 C96.36696764 106.26606472 96.30553136 109.48425253 97 113 C98.43992724 115.15580016 100.05772189 117.05684908 101.73046875 119.03515625 C103.21446401 121.3319243 103.28779887 122.33557092 102.875 125 C102.58625 125.99 102.2975 126.98 102 128 C86.40615164 130.85133419 67.00182746 122.41844943 54 114 C49.53821319 110.81070834 45.24924377 107.46634625 41 104 C40.16082031 103.31679688 39.32164063 102.63359375 38.45703125 101.9296875 C32.86346491 97.17371199 28.35683962 91.89553154 24 86 C23.25621094 84.99839844 22.51242188 83.99679688 21.74609375 82.96484375 C14.35739781 72.67567833 8.80500636 61.91673912 4.6875 49.9375 C4.44491455 49.24245361 4.2023291 48.54740723 3.95239258 47.83129883 C0.24642342 36.4749727 -0.28705368 25.04858308 -0.125 13.1875 C-0.11597656 11.91068359 -0.10695312 10.63386719 -0.09765625 9.31835938 C-0.07438789 6.21203284 -0.04170155 3.10612428 0 0 Z " fill="#28347B" transform="translate(46,162)"/>
<path d="M0 0 C0.495 0.99 0.495 0.99 1 2 C1.99 2.495 1.99 2.495 3 3 C-2.78776689 14.71954435 -8.46194795 25.28582524 -17.671875 34.7109375 C-20.33241762 37.53589567 -20.98955178 38.79103553 -21.1875 42.75 C-21.14625 43.42546875 -21.105 44.1009375 -21.0625 44.796875 C-20.84546958 52.44719728 -23.26597226 59.06521304 -28 65 C-33.56886056 70.56886056 -40.32144387 73.23240028 -48.125 73.4375 C-56.53981422 73.10687992 -62.21341196 69.91613851 -68 64 C-74.39953206 55.69790435 -75.02532479 47.21096646 -74 37 C-72.02085433 30.42549894 -68.77978528 25.66794066 -63 22 C-55.24232163 18.12902864 -45.87880504 17.5346742 -37.60546875 20.01953125 C-36.74566406 20.34308594 -35.88585937 20.66664063 -35 21 C-35.33 21.66 -35.66 22.32 -36 23 C-36.90621094 22.97679687 -37.81242187 22.95359375 -38.74609375 22.9296875 C-51.78218838 22.41199834 -51.78218838 22.41199834 -62.9375 28.125 C-63.48277344 28.66382813 -64.02804688 29.20265625 -64.58984375 29.7578125 C-66 31 -66 31 -68 31 C-70.76309317 41.43561083 -70.97996329 49.194624 -66 59 C-63.27822791 63.2641096 -60.76200798 65.26836073 -56 67 C-47.36928489 68.7422251 -40.86365171 67.76343847 -33.25 63.4375 C-25.73625121 55.29760547 -25.15522614 46.58360073 -25 36 C-24.01 35.67 -23.02 35.34 -22 35 C-21.29376322 33.68719696 -20.63289292 32.3496921 -20 31 C-18.85947325 29.58272778 -17.68912389 28.18925204 -16.5 26.8125 C-9.8926695 18.71670493 -4.60990561 9.36751478 0 0 Z " fill="#234B85" transform="translate(291,229)"/>
<path d="M0 0 C0.98730354 -0.00143509 0.98730354 -0.00143509 1.99455261 -0.00289917 C3.39765518 -0.00358183 4.80076087 -0.00172161 6.20385742 0.00244141 C8.30850775 0.00769527 10.41293533 0.00254895 12.51757812 -0.00390625 C34.24508037 -0.01613169 34.24508037 -0.01613169 38.54296875 2.1328125 C38.56984154 3.94523302 38.5893059 5.75776483 38.60546875 7.5703125 C38.61707031 8.57964844 38.62867188 9.58898437 38.640625 10.62890625 C38.54296875 13.1328125 38.54296875 13.1328125 37.54296875 14.1328125 C36.16686993 14.23076561 34.78582993 14.26079338 33.40625 14.26220703 C32.08983521 14.26693527 32.08983521 14.26693527 30.74682617 14.27175903 C29.79267822 14.2697348 28.83853027 14.26771057 27.85546875 14.265625 C26.39620972 14.26706009 26.39620972 14.26706009 24.9074707 14.26852417 C22.84619075 14.26920608 20.78490867 14.26735103 18.72363281 14.26318359 C15.55659187 14.2578355 12.38969275 14.26312822 9.22265625 14.26953125 C7.2252601 14.26887047 5.22786404 14.26758931 3.23046875 14.265625 C2.2763208 14.26764923 1.32217285 14.26967346 0.33911133 14.27175903 C-0.53849854 14.26860687 -1.4161084 14.26545471 -2.3203125 14.26220703 C-3.09673096 14.26141144 -3.87314941 14.26061584 -4.6730957 14.25979614 C-6.45703125 14.1328125 -6.45703125 14.1328125 -7.45703125 13.1328125 C-7.55576941 11.13481678 -7.58674924 9.13324092 -7.58203125 7.1328125 C-7.58460938 6.0396875 -7.5871875 4.9465625 -7.58984375 3.8203125 C-7.33865513 -1.26256316 -4.46139838 0.00413448 0 0 Z " fill="#0671AF" transform="translate(152.45703125,145.8671875)"/>
<path d="M0 0 C1.80464722 -0.00676758 1.80464722 -0.00676758 3.64575195 -0.01367188 C4.77198975 -0.01173828 5.89822754 -0.00980469 7.05859375 -0.0078125 C8.07107178 -0.00668457 9.0835498 -0.00555664 10.12670898 -0.00439453 C12.5625 0.125 12.5625 0.125 14.5625 1.125 C14.5625 5.085 14.5625 9.045 14.5625 13.125 C11.78188025 14.05187325 10.14198141 14.24693396 7.2746582 14.23852539 C6.41399246 14.23844986 5.55332672 14.23837433 4.6665802 14.23829651 C3.74149155 14.23313522 2.81640289 14.22797394 1.86328125 14.22265625 C0.91309616 14.2212413 -0.03708893 14.21982635 -1.0160675 14.21836853 C-4.05241029 14.21276875 -7.08867948 14.20021632 -10.125 14.1875 C-12.18294164 14.18248497 -14.24088444 14.17792207 -16.29882812 14.17382812 C-21.34508046 14.1627994 -26.39127775 14.14553493 -31.4375 14.125 C-31.4375 9.835 -31.4375 5.545 -31.4375 1.125 C-20.95694179 0.29719851 -10.513537 0.01672687 0 0 Z " fill="#0074B2" transform="translate(176.4375,122.875)"/>
<path d="M0 0 C0.7213916 0.10908691 1.4427832 0.21817383 2.18603516 0.33056641 C5.37763572 0.93169976 7.09577816 1.44964184 9.3359375 3.859375 C9.85027344 4.79523437 9.85027344 4.79523437 10.375 5.75 C9.6015625 5.61722656 8.828125 5.48445313 8.03125 5.34765625 C6.9896875 5.17105469 5.948125 4.99445312 4.875 4.8125 C3.8540625 4.63847656 2.833125 4.46445312 1.78125 4.28515625 C-19.68093047 0.91323111 -42.13052852 2.10377011 -63.0703125 7.86328125 C-67.89849247 9.0676734 -72.66322885 9.53975546 -77.625 9.75 C-77.625 10.41 -77.625 11.07 -77.625 11.75 C-78.945 12.08 -80.265 12.41 -81.625 12.75 C-81.625 13.41 -81.625 14.07 -81.625 14.75 C-84.63531744 15.68423645 -85.49150268 15.79449911 -88.625 14.75 C-88.66109375 15.35972656 -88.6971875 15.96945313 -88.734375 16.59765625 C-89.625 18.75 -89.625 18.75 -92.390625 20.05859375 C-93.54046875 20.43113281 -94.6903125 20.80367187 -95.875 21.1875 C-101.04662192 23.04613936 -104.04398962 24.49150118 -107.625 28.75 C-109.21268068 30.22626449 -110.81903005 31.68255699 -112.4375 33.125 C-113.31148437 33.91261719 -114.18546875 34.70023438 -115.0859375 35.51171875 C-116.58695801 36.83492606 -118.10651688 38.13834982 -119.6640625 39.39453125 C-132.38797153 49.73597995 -141.73110776 65.100479 -148.625 79.75 C-150.625 76.75 -150.625 76.75 -150.40234375 74.8359375 C-141.25820951 50.29841144 -117.32538022 29.56924839 -95.625 16.75 C-94.77035156 16.2034375 -93.91570312 15.656875 -93.03515625 15.09375 C-86.56111588 10.98058335 -79.85768261 8.26276297 -72.625 5.75 C-71.62984375 5.3890625 -70.6346875 5.028125 -69.609375 4.65625 C-47.73395242 -2.74773918 -22.68607481 -3.54810399 0 0 Z " fill="#046C9F" transform="translate(191.625,37.25)"/>
<path d="M0 0 C0.33 0 0.66 0 1 0 C0.98428955 0.82910889 0.9685791 1.65821777 0.95239258 2.51245117 C0.29336898 42.7240136 6.66118908 78.88698155 34 110 C35.10794922 111.28970703 35.10794922 111.28970703 36.23828125 112.60546875 C40.23545619 117.22522667 40.23545619 117.22522667 45 121 C45 121.66 45 122.32 45 123 C45.556875 123.226875 46.11375 123.45375 46.6875 123.6875 C49.63246684 125.35896766 51.68156544 127.55276352 54 130 C51.953125 130.89453125 51.953125 130.89453125 49 131 C46.25618215 129.24789461 44.04642387 126.98102544 41.75 124.6875 C41.08395752 124.04031006 40.41791504 123.39312012 39.73168945 122.72631836 C37.80204073 120.8355956 35.89741499 118.92300632 34 117 C33.13246094 116.13117188 32.26492187 115.26234375 31.37109375 114.3671875 C16.75090951 98.93622381 6.18917484 78.53588341 1 58 C0.71640625 56.9996875 0.4328125 55.999375 0.140625 54.96875 C-1.74439897 48.06885093 -2.95128116 41.17384958 -3 34 C-2.505 33.505 -2.505 33.505 -2 33 C-1.97891234 30.09894002 -2.00701828 27.21225221 -2.0625 24.3125 C-2.15681676 16.00240756 -1.49657504 8.1910759 0 0 Z " fill="#2A316C" transform="translate(30,153)"/>
<path d="M0 0 C0.33 0 0.66 0 1 0 C1 23.43 1 46.86 1 71 C-24.74 71 -50.48 71 -77 71 C-73.29780252 68.53186835 -71.46821249 68.75752805 -67.05004883 68.77294922 C-66.34735367 68.77265717 -65.64465851 68.77236511 -64.92066956 68.77206421 C-62.59933093 68.77345692 -60.27831377 68.78901513 -57.95703125 68.8046875 C-56.34706294 68.80841784 -54.73709236 68.81126472 -53.12712097 68.81326294 C-48.89053068 68.82089773 -44.6540776 68.84054487 -40.4175415 68.8626709 C-35.33394456 68.88673047 -30.25030172 68.89591105 -25.16666412 68.90757751 C-17.44434733 68.9269694 -9.72233158 68.96529289 -2 69 C-2 47.55 -2 26.1 -2 4 C-25.76 4 -49.52 4 -74 4 C-74 5.65 -74 7.3 -74 9 C-74.66 8.67 -75.32 8.34 -76 8 C-76 6.02 -76 4.04 -76 2 C-50.92 2 -25.84 2 0 2 C0 1.34 0 0.68 0 0 Z " fill="#0C5A8C" transform="translate(206,106)"/>
<path d="M0 0 C0.81550323 -0.00554901 1.63100647 -0.01109802 2.47122192 -0.01681519 C5.14646548 -0.02855465 7.81999414 -0.00440398 10.49511719 0.02148438 C12.36122561 0.02319644 14.22733645 0.02312882 16.09344482 0.0213623 C19.99384739 0.02301206 23.89367274 0.04165302 27.79394531 0.07324219 C32.79669233 0.11302911 37.79868794 0.11727262 42.80156326 0.10977936 C46.64999291 0.10671344 50.49825311 0.11881485 54.34664154 0.13591003 C56.19185067 0.1429452 58.03707899 0.14606394 59.88230133 0.1452179 C62.45574359 0.14701192 65.02827705 0.16835552 67.6015625 0.1953125 C68.36524139 0.1923819 69.12892029 0.18945129 69.91574097 0.18643188 C75.09075665 0.27024413 75.09075665 0.27024413 77.53826904 2.14147949 C77.86949768 2.6278186 78.20072632 3.11415771 78.54199219 3.61523438 C77.88199219 3.61523438 77.22199219 3.61523438 76.54199219 3.61523438 C76.21199219 4.27523437 75.88199219 4.93523437 75.54199219 5.61523438 C74.87441391 5.45453964 74.20683563 5.29384491 73.51902771 5.12828064 C69.9712346 4.51687309 66.49787013 4.43630262 62.90942383 4.40649414 C62.15755295 4.39671036 61.40568207 4.38692657 60.63102722 4.37684631 C58.15475199 4.34704704 55.67852986 4.32555576 53.20214844 4.30664062 C52.35368284 4.3000688 51.50521725 4.29349697 50.63104057 4.286726 C46.14377381 4.2542077 41.65653013 4.22973301 37.16918945 4.21020508 C33.46083135 4.19236586 29.75322991 4.15749397 26.04516602 4.10766602 C21.55892431 4.04746419 17.07338595 4.01673126 12.58675957 4.00703239 C10.88069902 3.99848139 9.17465713 3.97967174 7.4688282 3.95028877 C5.07970372 3.91133545 2.69332218 3.91034226 0.30395508 3.91821289 C-0.74594101 3.88821198 -0.74594101 3.88821198 -1.81704712 3.85760498 C-5.9663382 3.91879177 -8.00627255 4.77032926 -10.81813049 7.65879822 C-11.68929001 8.63442215 -12.56044952 9.61004608 -13.45800781 10.61523438 C-14.11800781 10.61523438 -14.77800781 10.61523438 -15.45800781 10.61523438 C-15.48306396 11.39535889 -15.50812012 12.1754834 -15.53393555 12.97924805 C-15.65150725 16.58717982 -15.77348786 20.19495041 -15.89550781 23.80273438 C-15.93482422 25.02927734 -15.97414063 26.25582031 -16.01464844 27.51953125 C-16.29088839 35.57298819 -16.77030608 43.58642216 -17.45800781 51.61523438 C-17.78800781 51.61523438 -18.11800781 51.61523438 -18.45800781 51.61523438 C-18.53237032 46.02851243 -18.58671035 40.44208098 -18.62280273 34.85498047 C-18.63785472 32.95584085 -18.65830098 31.05673579 -18.68432617 29.15771484 C-18.72086773 26.42211356 -18.7377702 23.68697337 -18.75097656 20.95117188 C-18.76646042 20.10718842 -18.78194427 19.26320496 -18.79789734 18.39364624 C-18.79931183 13.39735011 -18.42292479 9.83121733 -15.45800781 5.61523438 C-10.5974081 1.03743021 -6.55363645 -0.11504044 0 0 Z " fill="#03659F" transform="translate(134.4580078125,90.384765625)"/>
<path d="M0 0 C1.16080078 0.01804688 2.32160156 0.03609375 3.51757812 0.0546875 C6.36674747 0.10158741 9.21418531 0.16720941 12.0625 0.25 C12.5575 1.735 12.5575 1.735 13.0625 3.25 C11.97364502 3.26401855 11.97364502 3.26401855 10.86279297 3.27832031 C7.55368786 3.33221281 4.24596762 3.41582439 0.9375 3.5 C-0.20460938 3.51417969 -1.34671875 3.52835938 -2.5234375 3.54296875 C-8.90668007 3.72852813 -13.11938192 3.89036728 -17.9375 8.25 C-21.48836693 12.28071381 -23.05611414 14.58957791 -23.09863281 19.92407227 C-23.10824036 20.89590958 -23.1178479 21.86774689 -23.12774658 22.86903381 C-23.13199646 23.92416672 -23.13624634 24.97929962 -23.140625 26.06640625 C-23.14632507 27.15203354 -23.15202515 28.23766083 -23.15789795 29.35618591 C-23.16736029 31.66038028 -23.17388681 33.96458825 -23.17773438 36.26879883 C-23.18739348 39.77384587 -23.21838642 43.27829497 -23.25 46.78320312 C-23.2565347 49.02343402 -23.26178334 51.26366911 -23.265625 53.50390625 C-23.2779718 54.54486954 -23.2903186 55.58583282 -23.30303955 56.65834045 C-23.27615528 65.56185975 -21.15113906 72.42467031 -16.9375 80.25 C-17.9275 80.25 -18.9175 80.25 -19.9375 80.25 C-21.5078125 78.640625 -21.5078125 78.640625 -23.0625 76.5 C-23.83980469 75.45585937 -23.83980469 75.45585937 -24.6328125 74.390625 C-26.88419521 70.6967396 -27.06675842 67.29521371 -27.09863281 63.02587891 C-27.10824036 61.98444733 -27.1178479 60.94301575 -27.12774658 59.87002563 C-27.13199646 58.7501828 -27.13624634 57.63033997 -27.140625 56.4765625 C-27.14632507 55.32006195 -27.15202515 54.1635614 -27.15789795 52.97201538 C-27.16734119 50.52594923 -27.17387924 48.0798704 -27.17773438 45.63378906 C-27.18744477 41.89625846 -27.21847737 38.15927669 -27.25 34.421875 C-27.25652983 32.0442741 -27.26178038 29.66666926 -27.265625 27.2890625 C-27.2779718 26.17326813 -27.2903186 25.05747375 -27.30303955 23.90786743 C-27.27961066 15.72843379 -25.68447067 10.31624682 -19.9375 4.25 C-13.54758019 -0.56227064 -7.79646174 -0.23048096 0 0 Z " fill="#1465A2" transform="translate(103.9375,144.75)"/>
<path d="M0 0 C2.84548135 0.81598362 4.64386864 2.24752853 6.30859375 4.6953125 C7.8741951 8.36586111 7.98658776 11.73579034 7.125 15.609375 C5.1875 18.671875 5.1875 18.671875 2.125 20.609375 C-1.02950142 21.29960045 -3.72538296 21.33972098 -6.875 20.609375 C-10.50118614 17.7386443 -12.56699537 15.50140346 -13.3125 10.921875 C-12.77712735 6.86833921 -11.55769833 4.92624479 -8.7890625 1.98046875 C-5.8768573 -0.1056211 -3.51725175 -0.30894779 0 0 Z " fill="#0E98C8" transform="translate(231.875,159.390625)"/>
<path d="M0 0 C2.26648335 0.01607262 4.53117794 0.00006648 6.79760742 -0.01904297 C18.79748549 -0.03657711 29.75600901 1.8879741 41.2097168 5.57861328 C42.28995117 5.92279297 43.37018555 6.26697266 44.4831543 6.62158203 C45.25916992 6.87552734 46.03518555 7.12947266 46.8347168 7.39111328 C46.8347168 8.05111328 46.8347168 8.71111328 46.8347168 9.39111328 C51.7847168 10.38111328 51.7847168 10.38111328 56.8347168 11.39111328 C56.8347168 12.05111328 56.8347168 12.71111328 56.8347168 13.39111328 C57.4947168 13.39111328 58.1547168 13.39111328 58.8347168 13.39111328 C58.5047168 14.38111328 58.1747168 15.37111328 57.8347168 16.39111328 C57.00069336 16.06498047 56.16666992 15.73884766 55.30737305 15.40283203 C54.18202148 14.96583984 53.05666992 14.52884766 51.8972168 14.07861328 C50.79506836 13.64935547 49.69291992 13.22009766 48.55737305 12.77783203 C47.32889648 12.32021484 46.10041992 11.86259766 44.8347168 11.39111328 C44.16480713 11.14014893 43.49489746 10.88918457 42.8046875 10.63061523 C19.94364809 2.49302346 -3.69941304 3.27601288 -27.1652832 7.39111328 C-27.4952832 6.07111328 -27.8252832 4.75111328 -28.1652832 3.39111328 C-18.63694194 0.64429804 -9.85208418 -0.08283524 0 0 Z " fill="#04587C" transform="translate(162.165283203125,55.60888671875)"/>
<path d="M0 0 C4.36566485 0.28602632 7.17941131 2.22919049 10.75 4.625 C22.46608403 12.15080895 35.56851058 16.58959775 49 20 C50.88525391 20.52787109 50.88525391 20.52787109 52.80859375 21.06640625 C57.35011586 22.19702827 61.83725036 22.44274269 66.5 22.625 C67.32242188 22.66367187 68.14484375 22.70234375 68.9921875 22.7421875 C70.9944701 22.83531692 72.99720262 22.91868985 75 23 C71.45293033 26.74454704 68.4499558 27.15944578 63.375 27.3125 C40.06881717 27.06356881 16.2260842 15.92705697 -2 2 C-1.34 1.34 -0.68 0.68 0 0 Z " fill="#292D6A" transform="translate(82,283)"/>
<path d="M0 0 C2.9375 2.4375 2.9375 2.4375 5 5 C5.33 5.33 5.66 5.66 6 6 C6.38387346 10.99035504 6.08713243 13.99816167 3 18 C-0.70126859 20.46751239 -2.62223532 20.30721156 -7 20 C-9.94413861 19.10040209 -10.84757178 18.19597914 -12.75 15.75 C-14.25036726 12.44919202 -14.51318494 10.59229458 -14 7 C-10.43672346 0.70487811 -7.3339155 -1.30661713 0 0 Z " fill="#1299C9" transform="translate(109,160)"/>
<path d="M0 0 C22.11 0 44.22 0 67 0 C67 0.66 67 1.32 67 2 C75.58 2 84.16 2 93 2 C93 2.33 93 2.66 93 3 C88.12043436 3.97611256 83.38077445 4.13629567 78.42431641 4.11352539 C77.58463318 4.11367142 76.74494995 4.11381744 75.87982178 4.1139679 C73.12037521 4.11327445 70.36099719 4.10550874 67.6015625 4.09765625 C65.68199704 4.09579005 63.7624311 4.0943671 61.84286499 4.09336853 C56.8024564 4.08955925 51.76207684 4.07974257 46.72167969 4.06866455 C41.5735717 4.05841623 36.42545901 4.05386359 31.27734375 4.04882812 C21.18488311 4.03811884 11.09244397 4.02106154 1 4 C0.67 2.68 0.34 1.36 0 0 Z " fill="#0C40A3" transform="translate(121,209)"/>
<path d="M0 0 C0.495 0.99 0.495 0.99 1 2 C1.66 2.33 2.32 2.66 3 3 C-2.78776689 14.71954435 -8.46194795 25.28582524 -17.671875 34.7109375 C-20.33241762 37.53589567 -20.98955178 38.79103553 -21.1875 42.75 C-21.125625 43.76320313 -21.125625 43.76320313 -21.0625 44.796875 C-20.8517709 52.22507594 -23.06514735 59.3922129 -28 65 C-30.8125 66.5 -30.8125 66.5 -33 67 C-31.89225719 63.1732521 -30.41579867 59.9873581 -28.4375 56.5625 C-25.01028828 49.98023749 -25.10700274 43.29564151 -25 36 C-23.515 35.505 -23.515 35.505 -22 35 C-21.29376322 33.68719696 -20.63289292 32.3496921 -20 31 C-18.85947325 29.58272778 -17.68912389 28.18925204 -16.5 26.8125 C-9.8926695 18.71670493 -4.60990561 9.36751478 0 0 Z " fill="#155487" transform="translate(291,229)"/>
<path d="M0 0 C1.13300537 0.32145996 2.26601074 0.64291992 3.43334961 0.97412109 C10.86899134 2.61531356 18.48976571 2.35934712 26.06640625 2.4140625 C27.71265099 2.43280003 29.35888638 2.45237532 31.00511169 2.4727478 C35.31054138 2.52380223 39.61600212 2.56356972 43.92156982 2.60089111 C48.32604483 2.64109929 52.73039368 2.69211442 57.13476562 2.7421875 C65.75642382 2.83863024 74.37814512 2.92313496 83 3 C82.67 3.99 82.34 4.98 82 6 C71.93373196 6.06957377 61.86752133 6.12284876 51.80106163 6.15543652 C47.12656524 6.17107865 42.45223361 6.19229038 37.77783203 6.22631836 C33.26502492 6.25896363 28.75237609 6.27686394 24.23945999 6.28463173 C22.5195021 6.29016596 20.79955266 6.30097303 19.07966232 6.31719017 C16.66668874 6.33903339 14.25436547 6.34196409 11.84130859 6.34057617 C11.13352264 6.351362 10.42573669 6.36214783 9.69650269 6.3732605 C5.07327705 6.34457027 1.96980432 5.33880338 -2 3 C-1.34 2.01 -0.68 1.02 0 0 Z " fill="#173C69" transform="translate(88,224)"/>
<path d="M0 0 C0.33 0 0.66 0 1 0 C1.81653134 32.93133714 -2.2183973 59.6082566 -23.51953125 86.125 C-24.75684619 87.69204795 -25.89246115 89.33869172 -27 91 C-30.625 91.1875 -30.625 91.1875 -34 91 C-33.44828125 90.81824219 -32.8965625 90.63648438 -32.328125 90.44921875 C-28.83804694 88.27670371 -27.00960576 85.19418518 -24.75 81.8125 C-24.26909912 81.1014209 -23.78819824 80.3903418 -23.29272461 79.65771484 C-14.95772857 67.12265679 -8.30061452 54.02310053 -4.7109375 39.34765625 C-4 37 -4 37 -2 34 C-0.88557732 26.68613986 -0.69748138 19.32352847 -0.4375 11.9375 C-0.37272461 10.20983398 -0.37272461 10.20983398 -0.30664062 8.44726562 C-0.20149148 5.63160509 -0.09934607 2.81587024 0 0 Z " fill="#15609B" transform="translate(285,162)"/>
<path d="M0 0 C0.33 0 0.66 0 1 0 C1.33 6.6 1.66 13.2 2 20 C2.33 20 2.66 20 3 20 C3.15855469 21.11375 3.31710938 22.2275 3.48046875 23.375 C6.68397937 44.77426192 13.08602805 65.02555819 26.703125 82.140625 C28 84 28 84 28 86 C28.66 86 29.32 86 30 86 C35 91.47619048 35 91.47619048 35 94 C35.66 94 36.32 94 37 94 C37 94.66 37 95.32 37 96 C37.66 96 38.32 96 39 96 C39 96.66 39 97.32 39 98 C39.66 98 40.32 98 41 98 C41 98.66 41 99.32 41 100 C41.66 100 42.32 100 43 100 C42.505 101.485 42.505 101.485 42 103 C26.47068389 88.34694624 14.03644751 71.82243002 7.0078125 51.44921875 C6.25299548 48.85276349 6.25299548 48.85276349 4 48 C3.18359375 45.55859375 3.18359375 45.55859375 2.4375 42.4375 C2.18871094 41.42558594 1.93992188 40.41367188 1.68359375 39.37109375 C-0.07567349 30.69539304 -0.12085439 22.33395683 -0.0625 13.5 C-0.05798828 12.200625 -0.05347656 10.90125 -0.04882812 9.5625 C-0.0371092 6.37495175 -0.02070219 3.18750045 0 0 Z " fill="#1E4A8F" transform="translate(46,162)"/>
<path d="M0 0 C0.66 0.66 1.32 1.32 2 2 C-8.56 2 -19.12 2 -30 2 C-30 4.64 -30 7.28 -30 10 C-15.81 10 -1.62 10 13 10 C13 10.66 13 11.32 13 12 C13.66 12.33 14.32 12.66 15 13 C12.21938025 13.92687325 10.57948141 14.12193396 7.7121582 14.11352539 C6.85149246 14.11344986 5.99082672 14.11337433 5.1040802 14.11329651 C4.17899155 14.10813522 3.25390289 14.10297394 2.30078125 14.09765625 C1.35059616 14.0962413 0.40041107 14.09482635 -0.5785675 14.09336853 C-3.61491029 14.08776875 -6.65117948 14.07521632 -9.6875 14.0625 C-11.74544164 14.05748497 -13.80338444 14.05292207 -15.86132812 14.04882812 C-20.90758046 14.0377994 -25.95377775 14.02053493 -31 14 C-31 9.71 -31 5.42 -31 1 C-7.13376309 -0.61804996 -7.13376309 -0.61804996 0 0 Z " fill="#05486D" transform="translate(176,123)"/>
<path d="M0 0 C3.71655027 2.44509887 5.46597974 4.31383355 6.57568359 8.6340332 C7.56268265 14.13748994 7.7824784 19.7395051 8.125 25.3125 C8.21136719 26.58029297 8.29773438 27.84808594 8.38671875 29.15429688 C8.8407879 36.11308673 9.12836544 43.0264965 9 50 C9.93682617 49.96072388 9.93682617 49.96072388 10.89257812 49.9206543 C13.76145601 49.81580541 16.62992959 49.75140106 19.5 49.6875 C20.48226562 49.64560547 21.46453125 49.60371094 22.4765625 49.56054688 C29.07345665 49.45059864 34.06800129 50.31585391 39 55 C39 55.66 39 56.32 39 57 C39.66 57 40.32 57 41 57 C45 63.75 45 63.75 45 66 C44.34 66 43.68 66 43 66 C43 67.65 43 69.3 43 71 C42.67 71 42.34 71 42 71 C41.79375 69.824375 41.5875 68.64875 41.375 67.4375 C40.04919307 62.10586213 36.97329584 57.7964776 32.23461914 54.93334961 C29.57764984 53.82359394 27.48835575 53.6980362 24.61328125 53.62109375 C23.0828418 53.56985352 23.0828418 53.56985352 21.52148438 53.51757812 C20.46251953 53.49115234 19.40355469 53.46472656 18.3125 53.4375 C16.20430562 53.3778461 14.09621743 53.31426417 11.98828125 53.24609375 C10.58896362 53.21020142 10.58896362 53.21020142 9.16137695 53.17358398 C7 53 7 53 6 52 C5.86424787 49.12648451 5.78930619 46.27370483 5.75390625 43.3984375 C5.72094362 41.61067263 5.68773241 39.82291234 5.65429688 38.03515625 C5.60704214 35.21113512 5.56266954 32.38712921 5.52319336 29.56298828 C5.48324539 26.84126372 5.43172981 24.11993848 5.37890625 21.3984375 C5.3704921 20.56275238 5.36207794 19.72706726 5.35340881 18.86605835 C5.2105997 10.42899577 5.2105997 10.42899577 1.375 3.1875 C0.694375 2.5996875 0.694375 2.5996875 0 2 C0 1.34 0 0.68 0 0 Z " fill="#0F5D97" transform="translate(212,95)"/>
<path d="M0 0 C5.69103501 -0.38383116 9.7768729 0.7747201 14.8125 3.25 C15.54025635 3.6013501 16.2680127 3.9527002 17.01782227 4.31469727 C29.85123536 10.72523851 41.78632419 18.92250653 52 29 C53.40765625 30.299375 53.40765625 30.299375 54.84375 31.625 C63.90940337 40.13030069 74.01230572 51.01346013 78 63 C73.39076545 61.46358848 71.87177272 57.28766716 69.4921875 53.27929688 C67.57905387 50.15735107 66.13448202 48.10604115 63.2109375 45.80078125 C62.48132813 45.20652344 61.75171875 44.61226562 61 44 C61 42.68 61 41.36 61 40 C60.34 40 59.68 40 59 40 C57.37890625 38.35546875 57.37890625 38.35546875 55.5625 36.1875 C51.7549292 31.42149118 51.7549292 31.42149118 46.875 27.9375 C45 27 45 27 44 25 C42.344389 24.06606559 40.65049478 23.19897217 38.9375 22.375 C38.01839844 21.92898437 37.09929687 21.48296875 36.15234375 21.0234375 C35.08693359 20.51683594 35.08693359 20.51683594 34 20 C34.33 19.34 34.66 18.68 35 18 C33.865625 17.731875 32.73125 17.46375 31.5625 17.1875 C30.386875 16.795625 29.21125 16.40375 28 16 C27.67 15.01 27.34 14.02 27 13 C21.98446539 9.51983313 15.78302033 7.76703399 10 6 C10 5.34 10 4.68 10 4 C6.7 3.01 3.4 2.02 0 1 C0 0.67 0 0.34 0 0 Z " fill="#037BAB" transform="translate(210,44)"/>
<path d="M0 0 C14.52 0 29.04 0 44 0 C44.495 1.98 44.495 1.98 45 4 C44 5 44 5 42.20933533 5.12025452 C41.42990067 5.11803391 40.650466 5.11581329 39.84741211 5.11352539 C38.96657455 5.11344986 38.085737 5.11337433 37.1782074 5.11329651 C36.22092239 5.10813522 35.26363739 5.10297394 34.27734375 5.09765625 C33.30213272 5.0962413 32.32692169 5.09482635 31.32215881 5.09336853 C28.19390857 5.08775133 25.06572877 5.07519593 21.9375 5.0625 C19.82226666 5.05748722 17.70703219 5.05292393 15.59179688 5.04882812 C10.39450704 5.03777631 5.19725855 5.02102146 0 5 C-0.33 4.01 -0.66 3.02 -1 2 C-0.67 1.34 -0.34 0.68 0 0 Z " fill="#065D89" transform="translate(146,155)"/>
<path d="M0 0 C3.09798777 2.45257365 4.73736886 5.29965029 6.125 9 C5.9400489 13.43882649 4.10999483 14.89000517 1 18 C-2.46250243 19.73125121 -6.21408229 19.47815224 -10 19 C-13.47485838 16.92987161 -15.74352278 14.88365688 -17 11 C-17.45524168 8.00841181 -17.57022222 5.97914652 -16.01953125 3.31640625 C-11.40089421 -2.60966035 -6.77737799 -2.9449321 0 0 Z M-12.5 4.75 C-14.18490007 6.82665619 -14.18490007 6.82665619 -14 9 C-12.6222415 11.755517 -11.52987918 13.18367649 -9 15 C-5.44377092 15.65245332 -2.19370123 15.7087601 1 13.8125 C2.41113901 11.25481055 2.56152444 9.87781273 2 7 C-0.76529011 3.89952321 -2.43382168 3.07946362 -6.5625 2.5 C-10.0290194 2.74120527 -10.0290194 2.74120527 -12.5 4.75 Z " fill="#1F3F7B" transform="translate(249,265)"/>
<path d="M0 0 C-0.96099609 0.85271484 -0.96099609 0.85271484 -1.94140625 1.72265625 C-4.64169458 4.1331968 -7.32093177 6.56592031 -10 9 C-10.60585937 9.5259375 -11.21171875 10.051875 -11.8359375 10.59375 C-22.78398889 20.6339142 -29.83560696 34.71741098 -36 48 C-36.66 48 -37.32 48 -38 48 C-39.98 52.95 -39.98 52.95 -42 58 C-43.39498699 53.81503902 -41.76466876 51.12612714 -40.125 47.25 C-39.80764893 46.49428711 -39.49029785 45.73857422 -39.16333008 44.95996094 C-32.61238399 29.82998065 -20.6077704 7.37084604 -5.42578125 -0.30078125 C-3 -1 -3 -1 0 0 Z " fill="#096294" transform="translate(94,84)"/>
<path d="M0 0 C0.91712769 -0.00014603 1.83425537 -0.00029205 2.7791748 -0.0004425 C5.82009216 0.00025591 8.86094877 0.00804499 11.90185547 0.01586914 C14.0064999 0.01773357 16.11114477 0.01915736 18.21578979 0.02015686 C23.76260572 0.02398004 29.30939557 0.03380865 34.85620117 0.04486084 C40.51334277 0.05507923 46.17048856 0.0596554 51.82763672 0.06469727 C62.93311694 0.07543108 74.03857779 0.09250513 85.14404297 0.11352539 C84.81404297 0.77352539 84.48404297 1.43352539 84.14404297 2.11352539 C82.9981218 2.12383286 81.85220062 2.13414032 80.67155457 2.14476013 C69.88550088 2.24241043 59.09950597 2.34513656 48.31354809 2.45286465 C42.76805306 2.50808797 37.22255276 2.5615071 31.67700195 2.61083984 C26.3277604 2.65849201 20.97858365 2.71083524 15.62941933 2.76646614 C13.58604859 2.78688581 11.54266009 2.80559953 9.49925804 2.82259941 C6.64275042 2.84665191 3.78636549 2.87670547 0.92993164 2.90820312 C0.08044952 2.91395859 -0.76903259 2.91971405 -1.64425659 2.92564392 C-4.95908705 2.96733909 -7.68995885 3.05819266 -10.85595703 4.11352539 C-10.85595703 3.12352539 -10.85595703 2.13352539 -10.85595703 1.11352539 C-7.49450153 -0.56720236 -3.69608235 -0.0152429 0 0 Z " fill="#0D436C" transform="translate(128.85595703125,193.886474609375)"/>
<path d="M0 0 C0.33 0 0.66 0 1 0 C1 1.65 1 3.3 1 5 C1.66 5 2.32 5 3 5 C1.98055897 11.37150646 -1.23567367 15.78103012 -6.3125 19.5 C-9.85863012 21.9956607 -11.65130084 21.93639456 -15.82539368 21.26333618 C-20.32766947 20.71812848 -24.87395019 20.87977675 -29.40234375 20.90234375 C-31.0188961 20.90446617 -31.0188961 20.90446617 -32.66810608 20.90663147 C-36.09126629 20.91220389 -39.51435975 20.92475132 -42.9375 20.9375 C-45.26627509 20.94251856 -47.59505122 20.94708085 -49.92382812 20.95117188 C-55.61590798 20.96216429 -61.30794922 20.97887486 -67 21 C-67 22.98 -67 24.96 -67 27 C-67.33 27 -67.66 27 -68 27 C-68 24.69 -68 22.38 -68 20 C-60.33821148 19.24630886 -52.73678516 18.91084327 -45.04296875 18.82421875 C-43.72391037 18.80634811 -43.72391037 18.80634811 -42.37820435 18.78811646 C-38.72095141 18.73921111 -35.06405019 18.69173231 -31.40649414 18.67407227 C-28.70145664 18.65854118 -25.99767143 18.6183616 -23.29296875 18.57421875 C-22.47821579 18.57612717 -21.66346283 18.57803558 -20.82402039 18.58000183 C-15.15085799 18.45979449 -10.73185407 17.21140729 -6 14 C-2.24637909 9.65370211 -1.13707935 5.49588352 0 0 Z " fill="#185690" transform="translate(254,207)"/>
<path d="M0 0 C0.66 0.33 1.32 0.66 2 1 C0.65808594 2.18142578 0.65808594 2.18142578 -0.7109375 3.38671875 C-14.96878003 16.14477712 -25.8136059 30.60391253 -34 48 C-36 45 -36 45 -35.77734375 43.0859375 C-31.05105812 30.4033419 -20.69850941 18.54039454 -11.625 8.6875 C-11.03009766 8.03499268 -10.43519531 7.38248535 -9.82226562 6.71020508 C-9.25443359 6.10845459 -8.68660156 5.5067041 -8.1015625 4.88671875 C-7.59963379 4.35264404 -7.09770508 3.81856934 -6.58056641 3.26831055 C-4.74867607 1.79832749 -3.27694288 1.46556253 -1 1 C-0.67 0.67 -0.34 0.34 0 0 Z " fill="#086A9B" transform="translate(77,69)"/>
<path d="M0 0 C0.56847656 0.40992188 1.13695312 0.81984375 1.72265625 1.2421875 C9.29641215 6.52737943 15.06500976 8.58311447 24.33984375 7.5625 C28.1401679 6.75890723 30.74489345 5.07772759 34 3 C34.66 3.33 35.32 3.66 36 4 C35.34 4.99 34.68 5.98 34 7 C34.66 7.33 35.32 7.66 36 8 C28.26569119 12.26300486 21.84565804 14.14219401 13 13 C7.20426197 11.28978222 3.32613226 8.0631455 -1 4 C-0.67 2.68 -0.34 1.36 0 0 Z " fill="#283269" transform="translate(224,289)"/>
<path d="M0 0 C0.33 0 0.66 0 1 0 C0.98428955 0.82910889 0.9685791 1.65821777 0.95239258 2.51245117 C0.61830071 22.89769397 1.91759561 41.98888171 6 62 C4.68 62 3.36 62 2 62 C-3.08466642 43.36410632 -3.08466642 43.36410632 -3 34 C-2.505 33.505 -2.505 33.505 -2 33 C-1.97891234 30.09894002 -2.00701828 27.21225221 -2.0625 24.3125 C-2.15681676 16.00240756 -1.49657504 8.1910759 0 0 Z " fill="#114F90" transform="translate(30,153)"/>
<path d="M0 0 C2.31016649 0.02376059 4.61918395 0.02051327 6.92944336 0.01391602 C14.66325271 0.02977737 22.09860997 0.30570131 29.61499023 2.33618164 C29.61499023 2.66618164 29.61499023 2.99618164 29.61499023 3.33618164 C28.02630127 3.32047119 28.02630127 3.32047119 26.40551758 3.30444336 C22.45828663 3.26811376 18.51107034 3.24523416 14.5637207 3.22631836 C12.85861725 3.21629024 11.15353087 3.20266438 9.44848633 3.18530273 C6.99092381 3.16091361 4.53358963 3.14966652 2.07592773 3.14086914 C1.31943939 3.13054657 0.56295105 3.120224 -0.21646118 3.10958862 C-4.69078931 3.10865025 -8.21474109 3.75694383 -12.38500977 5.33618164 C-15.01800485 5.76703538 -17.61469053 6.14845979 -20.26000977 6.46118164 C-20.94836914 6.54754883 -21.63672852 6.63391602 -22.34594727 6.72290039 C-24.02496252 6.9327773 -25.70490024 7.13525251 -27.38500977 7.33618164 C-27.71500977 6.01618164 -28.04500977 4.69618164 -28.38500977 3.33618164 C-18.77710343 0.54597216 -9.93547066 -0.10913442 0 0 Z " fill="#0571A6" transform="translate(162.385009765625,55.663818359375)"/>
<path d="M0 0 C5.56784748 4.78804697 6.23144804 10.96893365 7 18 C7.42229247 24.78599806 7.2867899 31.58082299 7.1875 38.375 C7.17241208 40.19009295 7.15873101 42.00519816 7.14648438 43.8203125 C7.11383589 48.21385131 7.06228565 52.60678553 7 57 C6.01 57 5.02 57 4 57 C4 58.65 4 60.3 4 62 C3.34 61.67 2.68 61.34 2 61 C2.144375 60.319375 2.28875 59.63875 2.4375 58.9375 C4.81090391 46.54305736 4.2602787 34.48258654 3.125 22 C3.04668945 21.12802979 2.96837891 20.25605957 2.88769531 19.35766602 C2.48661723 15.35264782 1.95075725 11.52199285 0.9296875 7.625 C0 4 0 4 0 0 Z " fill="#14629E" transform="translate(298,137)"/>
<path d="M0 0 C1.18851563 0.00902344 2.37703125 0.01804687 3.6015625 0.02734375 C4.51679688 0.03894531 5.43203125 0.05054688 6.375 0.0625 C6.375 0.3925 6.375 0.7225 6.375 1.0625 C2.415 1.0625 -1.545 1.0625 -5.625 1.0625 C-5.295 2.0525 -4.965 3.0425 -4.625 4.0625 C-4.47619067 6.84695155 -4.39393 9.58992385 -4.375 12.375 C-4.354375 13.12201172 -4.33375 13.86902344 -4.3125 14.63867188 C-4.27238003 20.35075193 -5.65521049 24.05597917 -8.8125 28.875 C-14.64723727 32.6977589 -23.11415695 30.84045 -29.625 30.0625 C-29.625 29.7325 -29.625 29.4025 -29.625 29.0625 C-28.75617188 29.04832031 -27.88734375 29.03414063 -26.9921875 29.01953125 C-19.5313604 28.94065896 -19.5313604 28.94065896 -12.9375 25.9375 C-8.60061107 20.54569214 -8.38089105 14.85465549 -8.5 8.125 C-8.50902344 7.44115234 -8.51804688 6.75730469 -8.52734375 6.05273438 C-8.55061042 4.38916713 -8.58646833 2.72578369 -8.625 1.0625 C-5.74084117 -0.37957941 -3.20778472 -0.03144887 0 0 Z " fill="#2D3B7F" transform="translate(168.625,275.9375)"/>
<path d="M0 0 C0.57492188 0.3609375 1.14984375 0.721875 1.7421875 1.09375 C0.0921875 1.42375 -1.5578125 1.75375 -3.2578125 2.09375 C-3.2578125 2.75375 -3.2578125 3.41375 -3.2578125 4.09375 C-4.5778125 4.42375 -5.8978125 4.75375 -7.2578125 5.09375 C-7.2578125 5.75375 -7.2578125 6.41375 -7.2578125 7.09375 C-10.26812994 8.02798645 -11.12431518 8.13824911 -14.2578125 7.09375 C-14.29390625 7.70347656 -14.33 8.31320313 -14.3671875 8.94140625 C-15.2578125 11.09375 -15.2578125 11.09375 -18.0234375 12.40234375 C-19.17328125 12.77488281 -20.323125 13.14742187 -21.5078125 13.53125 C-26.74966343 15.39514667 -29.83259018 16.75513507 -33.2578125 21.09375 C-35.6810594 23.81990276 -37.82058393 24.85987308 -41.2578125 26.09375 C-41.9178125 26.42375 -42.5778125 26.75375 -43.2578125 27.09375 C-39.27105809 18.25109092 -29.2116151 13.83379923 -21.2578125 9.09375 C-20.35160156 8.53171875 -19.44539063 7.9696875 -18.51171875 7.390625 C-3.96954052 -1.59331038 -3.96954052 -1.59331038 0 0 Z " fill="#0675A6" transform="translate(117.2578125,44.90625)"/>
<path d="M0 0 C1.65 0 3.3 0 5 0 C5.32871094 0.969375 5.65742187 1.93875 5.99609375 2.9375 C8.98647024 11.45541225 12.50922556 19.21350686 17.19116211 26.9453125 C18.18007009 28.599868 19.09743475 30.29680628 20 32 C19.67 32.66 19.34 33.32 19 34 C17.23828125 33.90625 17.23828125 33.90625 15 33 C13.52411367 30.833338 12.3519529 28.82714858 11.1875 26.5 C10.84783203 25.84306152 10.50816406 25.18612305 10.15820312 24.50927734 C0 4.44258573 0 4.44258573 0 0 Z " fill="#28357E" transform="translate(32,215)"/>
<path d="M0 0 C0.33 0.99 0.66 1.98 1 3 C1.66 3.33 2.32 3.66 3 4 C2.505 4.33 2.01 4.66 1.5 5 C-0.4515857 7.60211427 -0.09635272 9.53751475 0.0078125 12.69140625 C-0.01763381 20.21079045 -1.97213557 27.28651769 -7 33 C-9.8125 34.5 -9.8125 34.5 -12 35 C-10.89225719 31.1732521 -9.41579867 27.9873581 -7.4375 24.5625 C-4.01028828 17.98023749 -4.10700274 11.29564151 -4 4 C-3.01 3.67 -2.02 3.34 -1 3 C-0.67 2.01 -0.34 1.02 0 0 Z " fill="#244783" transform="translate(270,261)"/>
<path d="M0 0 C0.66 0 1.32 0 2 0 C3.48679725 2.97359449 3.11112605 5.66299179 3.09765625 8.9765625 C3.0962413 9.66181 3.09482635 10.3470575 3.09336853 11.05307007 C3.08776675 13.24375761 3.07521406 15.4343433 3.0625 17.625 C3.05748522 19.10937352 3.05292228 20.59374865 3.04882812 22.078125 C3.03779677 25.71878315 3.02053099 29.35938164 3 33 C2.01 32.67 1.02 32.34 0 32 C-1.42917743 29.14164514 -1.12980809 26.68742281 -1.1328125 23.49609375 C-1.13410156 22.19865234 -1.13539063 20.90121094 -1.13671875 19.56445312 C-1.13462402 18.88777588 -1.1325293 18.21109863 -1.13037109 17.51391602 C-1.12501202 15.44214585 -1.13032518 13.37059161 -1.13671875 11.29882812 C-1.13542969 10.00267578 -1.13414062 8.70652344 -1.1328125 7.37109375 C-1.13168457 6.17411865 -1.13055664 4.97714355 -1.12939453 3.74389648 C-1 1 -1 1 0 0 Z " fill="#235593" transform="translate(171,227)"/>
<path d="M0 0 C1.68319336 0.02707031 1.68319336 0.02707031 3.40039062 0.0546875 C6.16363447 0.10172144 8.92512698 0.16743683 11.6875 0.25 C11.6875 1.24 11.6875 2.23 11.6875 3.25 C11.09324219 3.2593457 10.49898437 3.26869141 9.88671875 3.27832031 C7.15285355 3.33252993 4.42060801 3.41607278 1.6875 3.5 C0.75292969 3.51417969 -0.18164062 3.52835937 -1.14453125 3.54296875 C-7.11797184 3.75183031 -12.53810105 4.34686503 -17.3125 8.25 C-18.47353751 10.78242119 -18.47353751 10.78242119 -18.3125 13.5 C-18.333125 14.39203125 -18.35375 15.2840625 -18.375 16.203125 C-18.3440625 17.21632813 -18.3440625 17.21632813 -18.3125 18.25 C-18.9725 18.25 -19.6325 18.25 -20.3125 18.25 C-21.79908773 13.29470758 -20.92858094 10.59723323 -18.7109375 6.1796875 C-13.58172143 -0.89805757 -8.13182002 -0.24713889 0 0 Z " fill="#204382" transform="translate(159.3125,257.75)"/>
<path d="M0 0 C4.19514597 -0.02507213 8.39025006 -0.04303239 12.58544922 -0.05493164 C14.00700644 -0.05990212 15.42855872 -0.06668084 16.85009766 -0.07543945 C36.48434093 -0.1932172 36.48434093 -0.1932172 43 1 C43.66 1.66 44.32 2.32 45 3 C42.19724228 3.93425257 40.6811461 4.09949044 37.80395508 4.02172852 C36.96331009 4.00163223 36.1226651 3.98153595 35.25654602 3.96083069 C34.35333115 3.93379562 33.45011627 3.90676056 32.51953125 3.87890625 C31.59154221 3.85529526 30.66355316 3.83168427 29.70744324 3.80735779 C26.74230505 3.73075991 23.77743058 3.64671871 20.8125 3.5625 C18.8027473 3.50927545 16.79298171 3.45653507 14.78320312 3.40429688 C9.85530162 3.27514994 4.92762377 3.13932693 0 3 C0 2.01 0 1.02 0 0 Z " fill="#09548F" transform="translate(146,146)"/>
<path d="M0 0 C2.75457718 0.37994168 3.82020574 0.8073633 5.75 2.875 C7 5 7 5 7 8 C7.66 8 8.32 8 9 8 C13.52351334 14.34381871 18.17507176 22.09568758 19 30 C18.34 30.99 17.68 31.98 17 33 C13.8936214 26.43117569 11.16163513 19.93998648 9 13 C8.34 13 7.68 13 7 13 C6.20724852 11.5839401 5.41584688 10.16712447 4.625 8.75 C3.96371094 7.56664063 3.96371094 7.56664063 3.2890625 6.359375 C2.14252177 4.26085803 1.05350448 2.1463923 0 0 Z " fill="#0573A4" transform="translate(260,104)"/>
<path d="M0 0 C1.11503906 0.00644531 2.23007813 0.01289063 3.37890625 0.01953125 C4.53777344 0.03628906 5.69664063 0.05304688 6.890625 0.0703125 C8.65212891 0.08384766 8.65212891 0.08384766 10.44921875 0.09765625 C13.34656036 0.12121187 16.24348941 0.15410598 19.140625 0.1953125 C19.635625 1.6803125 19.635625 1.6803125 20.140625 3.1953125 C19.05177002 3.20933105 19.05177002 3.20933105 17.94091797 3.22363281 C14.63181286 3.27752531 11.32409262 3.36113689 8.015625 3.4453125 C6.87351562 3.45949219 5.73140625 3.47367188 4.5546875 3.48828125 C-1.86145966 3.67479716 -5.97305246 3.89534867 -10.859375 8.1953125 C-11.643125 8.7728125 -12.426875 9.3503125 -13.234375 9.9453125 C-14.03875 10.5640625 -14.03875 10.5640625 -14.859375 11.1953125 C-11.14454689 3.47990028 -9.02348691 -0.0920764 0 0 Z " fill="#0F558C" transform="translate(96.859375,144.8046875)"/>
<path d="M0 0 C2.12493141 -0.02693575 4.24995912 -0.04636628 6.375 -0.0625 C7.55835938 -0.07410156 8.74171875 -0.08570312 9.9609375 -0.09765625 C13 0 13 0 15 1 C15 4.63 15 8.26 15 12 C14.34 12 13.68 12 13 12 C12 10 12 10 12 3 C-1.86 3 -15.72 3 -30 3 C-30 2.67 -30 2.34 -30 2 C-15.15 1.505 -15.15 1.505 0 1 C0 0.67 0 0.34 0 0 Z " fill="#025F97" transform="translate(176,123)"/>
<path d="M0 0 C1.31526421 3.94579263 0.31881308 5.34883118 -1.1875 9.1875 C-4.10731883 16.99271403 -6.11503099 24.8914741 -8 33 C-8.33 33 -8.66 33 -9 33 C-9 31.35 -9 29.7 -9 28 C-9.66 28 -10.32 28 -11 28 C-8.91462629 19.05951485 -6.79726682 10.40246276 -3 2 C-2.34 2 -1.68 2 -1 2 C-0.67 1.34 -0.34 0.68 0 0 Z " fill="#13619D" transform="translate(40,119)"/>
<path d="M0 0 C0 0.66 0 1.32 0 2 C-0.54269531 2.18175781 -1.08539063 2.36351562 -1.64453125 2.55078125 C-2.71767578 2.92783203 -2.71767578 2.92783203 -3.8125 3.3125 C-4.52019531 3.55613281 -5.22789062 3.79976563 -5.95703125 4.05078125 C-8.17618325 5.08185952 -9.46424171 6.10346039 -11 8 C-10.78933572 11.3706284 -9.35574591 12.74667783 -7 15 C-7 15.66 -7 16.32 -7 17 C-4.36 17 -1.72 17 1 17 C1 17.33 1 17.66 1 18 C-7.12628256 18.46882399 -7.12628256 18.46882399 -10.5625 16.625 C-12 15 -12 15 -12 13 C-12.99 12.67 -13.98 12.34 -15 12 C-15.34372111 9.1127427 -15.50436056 6.88111181 -14.02734375 4.30078125 C-12.27863836 2.09217169 -10.61763317 0.29885476 -8.0625 -0.9375 C-5.28161624 -1.0217692 -2.71848379 -0.5560535 0 0 Z " fill="#1D4385" transform="translate(247,264)"/>
<path d="M0 0 C1.59631344 4.78894032 2.18186314 8.15919102 1.125 13.125 C-0.09542665 19.63394211 -0.38905301 26.07116779 -0.56982422 32.67626953 C-0.79055193 38.79055193 -0.79055193 38.79055193 -3 41 C-5.17440975 10.3488195 -5.17440975 10.3488195 0 0 Z " fill="#15619E" transform="translate(50,143)"/>
<path d="M0 0 C0.66 0 1.32 0 2 0 C2.66621507 3.02765067 3.10905723 5.89446543 3 9 C1 12.0625 1 12.0625 -2 14 C-5.8125 14.3125 -5.8125 14.3125 -9 14 C-9 13.67 -9 13.34 -9 13 C-15.6 12.67 -22.2 12.34 -29 12 C-29 11.34 -29 10.68 -29 10 C-28.18732666 9.97494385 -27.37465332 9.9498877 -26.53735352 9.92407227 C-22.87889248 9.80850882 -19.22071472 9.68560416 -15.5625 9.5625 C-14.28310547 9.52318359 -13.00371094 9.48386719 -11.68554688 9.44335938 C-9.86313477 9.38051758 -9.86313477 9.38051758 -8.00390625 9.31640625 C-6.87799072 9.27974854 -5.7520752 9.24309082 -4.59204102 9.20532227 C-2.07146559 9.28781955 -2.07146559 9.28781955 -1 8 C-0.76924918 6.65252916 -0.58846937 5.29622435 -0.4375 3.9375 C-0.293125 2.638125 -0.14875 1.33875 0 0 Z " fill="#10688F" transform="translate(217,199)"/>
<path d="M0 0 C-1.72497507 4.6029598 -3.9095871 8.93255824 -6.125 13.3125 C-6.49753906 14.05306641 -6.87007812 14.79363281 -7.25390625 15.55664062 C-8.16744806 17.37201217 -9.08347487 19.18613282 -10 21 C-10.66 21 -11.32 21 -12 21 C-13.32 24.3 -14.64 27.6 -16 31 C-17.42421442 26.72735674 -15.62466335 23.88601681 -13.9375 19.9375 C-13.61821533 19.17759766 -13.29893066 18.41769531 -12.9699707 17.63476562 C-5.39640168 0 -5.39640168 0 0 0 Z " fill="#125993" transform="translate(68,111)"/>
<path d="M0 0 C0.99 0 1.98 0 3 0 C1.74188777 3.41657966 0.29436275 6.22455053 -1.8125 9.1875 C-5.04201025 13.90083929 -7.56534392 18.83982186 -10 24 C-12 21 -12 21 -11.796875 19.11328125 C-10.15296171 14.75368768 -7.48952113 10.91724651 -5 7 C-4.30583984 5.90751953 -4.30583984 5.90751953 -3.59765625 4.79296875 C-2.3125 2.875 -2.3125 2.875 0 0 Z " fill="#105F9E" transform="translate(53,93)"/>
<path d="M0 0 C0.66 0 1.32 0 2 0 C3.7265625 2.1171875 3.7265625 2.1171875 5.625 4.875 C6.25664063 5.77992188 6.88828125 6.68484375 7.5390625 7.6171875 C9 10 9 10 9 12 C9.66 12 10.32 12 11 12 C16 17.47619048 16 17.47619048 16 20 C16.66 20 17.32 20 18 20 C18 20.66 18 21.32 18 22 C18.66 22 19.32 22 20 22 C20 22.66 20 23.32 20 24 C20.66 24 21.32 24 22 24 C22 24.66 22 25.32 22 26 C22.66 26 23.32 26 24 26 C23.67 26.99 23.34 27.98 23 29 C16.13469167 22.52207584 9.66195566 16.03174539 4.1875 8.3125 C3.76162598 7.7129248 3.33575195 7.11334961 2.89697266 6.49560547 C0 2.28656734 0 2.28656734 0 0 Z " fill="#274F89" transform="translate(65,236)"/>
<path d="M0 0 C0.33 0 0.66 0 1 0 C1 1.65 1 3.3 1 5 C1.66 5 2.32 5 3 5 C2.16484583 10.21971358 -0.14631339 14.53942279 -4.265625 17.78515625 C-6.47766524 19.2563717 -8.70554028 20.66156516 -11 22 C-11.66 21.67 -12.32 21.34 -13 21 C-11.38216989 19.22038688 -10.14516309 18.06598322 -7.9375 17.0625 C-5.42898512 15.68686281 -5.07033202 14.6401523 -4 12 C-3.484375 10.865625 -2.96875 9.73125 -2.4375 8.5625 C-1.25626556 5.6350929 -0.46983022 3.10087948 0 0 Z " fill="#105992" transform="translate(254,207)"/>
<path d="M0 0 C1.09570312 0.00902344 2.19140625 0.01804687 3.3203125 0.02734375 C4.16335937 0.03894531 5.00640625 0.05054687 5.875 0.0625 C5.545 0.7225 5.215 1.3825 4.875 2.0625 C3.01953125 2.265625 3.01953125 2.265625 0.6875 2.3125 C-4.80966389 2.75821599 -6.54406028 5.05525793 -10.125 9.0625 C-11.115 9.0625 -12.105 9.0625 -13.125 9.0625 C-13.455 9.7225 -13.785 10.3825 -14.125 11.0625 C-13.85712125 7.13361171 -13.60062903 5.51373779 -10.6875 2.75 C-6.75408272 0.15970082 -4.71285458 -0.05013675 0 0 Z " fill="#046DA7" transform="translate(131.125,91.9375)"/>
<path d="M0 0 C0.79019531 0.53882812 1.58039063 1.07765625 2.39453125 1.6328125 C2.98621094 2.04273437 3.57789063 2.45265625 4.1875 2.875 C3.8575 4.195 3.5275 5.515 3.1875 6.875 C2.47464844 6.40449219 1.76179688 5.93398437 1.02734375 5.44921875 C-4.13019625 2.09647067 -9.05208562 -0.94884346 -14.8125 -3.125 C-14.8125 -3.455 -14.8125 -3.785 -14.8125 -4.125 C-8.70877863 -5.86892039 -5.012432 -3.44137123 0 0 Z " fill="#0A6C9C" transform="translate(234.8125,76.125)"/>
<path d="M0 0 C0.33 0 0.66 0 1 0 C1.03738281 1.05058594 1.07476562 2.10117188 1.11328125 3.18359375 C1.56631967 13.57376995 3.00419992 21.72208556 8 31 C5 31 5 31 3.39013672 29.671875 C-1.66114407 23.54873327 -1.60637967 18.68910999 -0.875 11 C-0.80023438 9.93910156 -0.72546875 8.87820312 -0.6484375 7.78515625 C-0.46114324 5.18644839 -0.24444985 2.59384903 0 0 Z " fill="#125289" transform="translate(79,194)"/>
<path d="M0 0 C0 0.33 0 0.66 0 1 C-9.9 2.485 -9.9 2.485 -20 4 C-20.33 2.68 -20.66 1.36 -21 0 C-13.47264358 -2.4579123 -7.52735642 -2.4579123 0 0 Z " fill="#056390" transform="translate(155,59)"/>
<path d="M0 0 C1 2 1 2 0.0625 5.0625 C-2.31816494 13.02541378 -0.93957413 19.14465587 2.22265625 26.71484375 C2.47917969 27.46894531 2.73570312 28.22304688 3 29 C2.67 29.66 2.34 30.32 2 31 C0.125 30.375 0.125 30.375 -2 29 C-3.25 25.875 -3.25 25.875 -4 23 C-3.34 23 -2.68 23 -2 23 C-2.33 22.01 -2.66 21.02 -3 20 C-3.51350321 12.69245425 -3.61608709 6.47882271 0 0 Z " fill="#1E3B7C" transform="translate(222,260)"/>
<path d="M0 0 C-3.17744001 1.61130844 -6.38953675 3.13372179 -9.625 4.625 C-10.58664063 5.07101563 -11.54828125 5.51703125 -12.5390625 5.9765625 C-15 7 -15 7 -17 7 C-17 6.34 -17 5.68 -17 5 C-17.66 4.67 -18.32 4.34 -19 4 C-17.3970947 3.18501438 -15.79262722 2.37310073 -14.1875 1.5625 C-13.29417969 1.11003906 -12.40085937 0.65757813 -11.48046875 0.19140625 C-6.75436512 -2.07861203 -4.86274564 -1.83703724 0 0 Z " fill="#056897" transform="translate(132,63)"/>
<path d="M0 0 C1 2 1 2 0.6875 5.625 C0.5762915 10.33852949 2.60655819 12.65535912 5.6875 16.04296875 C7.3371965 18.50278407 7.24060526 20.09769903 7 23 C6.01 23 5.02 23 4 23 C4.33 21.35 4.66 19.7 5 18 C4.236875 17.95875 3.47375 17.9175 2.6875 17.875 C0 17 0 17 -1.8125 13.9375 C-2.204375 12.968125 -2.59625 11.99875 -3 11 C-2.34 11 -1.68 11 -1 11 C-1.01160156 10.28972656 -1.02320313 9.57945312 -1.03515625 8.84765625 C-1.04417969 7.92855469 -1.05320313 7.00945312 -1.0625 6.0625 C-1.07410156 5.14597656 -1.08570313 4.22945313 -1.09765625 3.28515625 C-1 1 -1 1 0 0 Z " fill="#253279" transform="translate(142,265)"/>
<path d="M0 0 C0.33 0 0.66 0 1 0 C1.07533781 4.17680545 1.12914847 8.35322911 1.16479492 12.53051758 C1.17968738 13.94530137 1.20000836 15.36004067 1.22631836 16.7746582 C1.39734243 26.22122332 0.61948346 34.84608165 -2 44 C-2.33 44 -2.66 44 -3 44 C-4.25 37.375 -4.25 37.375 -2 34 C-0.88557732 26.68613986 -0.69748138 19.32352847 -0.4375 11.9375 C-0.39431641 10.78572266 -0.35113281 9.63394531 -0.30664062 8.44726562 C-0.20149148 5.63160509 -0.09934607 2.81587024 0 0 Z " fill="#13558B" transform="translate(285,162)"/>
<path d="M0 0 C0.33 0.66 0.66 1.32 1 2 C-0.27045696 3.75027325 -1.54138106 5.50020744 -2.8125 7.25 C-3.52019531 8.22453125 -4.22789062 9.1990625 -4.95703125 10.203125 C-5.96830078 11.58757812 -5.96830078 11.58757812 -7 13 C-7.75796875 14.16015625 -7.75796875 14.16015625 -8.53125 15.34375 C-10 17 -10 17 -13.6875 17.25 C-14.780625 17.1675 -15.87375 17.085 -17 17 C-16.11828125 16.6596875 -16.11828125 16.6596875 -15.21875 16.3125 C-12.39319096 14.64104254 -11.26156169 12.75444191 -9.5 10 C-7.23672993 6.46106862 -5.78964669 4.73950996 -2 3 C-1.34 2.01 -0.68 1.02 0 0 Z " fill="#19558E" transform="translate(268,236)"/>
<path d="M0 0 C0.66 0 1.32 0 2 0 C1.979375 0.78375 1.95875 1.5675 1.9375 2.375 C1.81315937 4.98114961 1.81315937 4.98114961 3 7 C-1.97063121 7.91297308 -6.02936879 7.91297308 -11 7 C-10.34 6.34 -9.68 5.68 -9 5 C-10.65 4.67 -12.3 4.34 -14 4 C-13.34 3.34 -12.68 2.68 -12 2 C-9.1796875 2.2421875 -9.1796875 2.2421875 -5.875 2.875 C-4.77929688 3.07867187 -3.68359375 3.28234375 -2.5546875 3.4921875 C-1.71164063 3.65976562 -0.86859375 3.82734375 0 4 C0 2.68 0 1.36 0 0 Z " fill="#353C84" transform="translate(145,283)"/>
<path d="M0 0 C1.32 0.33 2.64 0.66 4 1 C3.43711205 2.98507824 2.84902373 4.96302563 2.25 6.9375 C1.76273437 8.59072266 1.76273437 8.59072266 1.265625 10.27734375 C0 13 0 13 -2.140625 13.87890625 C-3.06101562 13.93884766 -3.06101562 13.93884766 -4 14 C-3.36843005 8.94744036 -1.86540627 4.70406799 0 0 Z " fill="#155C91" transform="translate(297,212)"/>
<path d="M0 0 C11.7427674 -0.7736816 11.7427674 -0.7736816 16.25 2 C18.4969608 5.8519328 18.77456478 8.5664407 19 13 C18.01 13.495 18.01 13.495 17 14 C17 11.36 17 8.72 17 6 C16.01 6.33 15.02 6.66 14 7 C12.68 5.68 11.36 4.36 10 3 C10.33 2.67 10.66 2.34 11 2 C7.37 1.67 3.74 1.34 0 1 C0 0.67 0 0.34 0 0 Z " fill="#145992" transform="translate(202,193)"/>
<path d="M0 0 C1.65 0 3.3 0 5 0 C5.67057887 1.7902061 6.3363469 3.58221489 7 5.375 C7.556875 6.87160156 7.556875 6.87160156 8.125 8.3984375 C9 11 9 11 9 13 C6.64453125 12.3515625 6.64453125 12.3515625 4 11 C2.63671875 8.3984375 2.63671875 8.3984375 1.6875 5.375 C1.36136719 4.37210938 1.03523438 3.36921875 0.69921875 2.3359375 C0.46847656 1.56507813 0.23773438 0.79421875 0 0 Z " fill="#234081" transform="translate(32,215)"/>
<path d="M0 0 C2.75457718 0.37994168 3.82020574 0.8073633 5.75 2.875 C7 5 7 5 7 8 C7.66 8 8.32 8 9 8 C10.6875 10.375 10.6875 10.375 12 13 C11.67 13.66 11.34 14.32 11 15 C7.3941162 13.57299067 6.13462077 12.04207 4.375 8.625 C3.97023438 7.85414062 3.56546875 7.08328125 3.1484375 6.2890625 C0.8515625 1.7109375 0.8515625 1.7109375 0 0 Z " fill="#076291" transform="translate(260,104)"/>
<path d="M0 0 C5.17609824 3.28157862 9.85989729 6.45924219 14 11 C13.67 11.99 13.34 12.98 13 14 C8.33333333 10 3.66666667 6 -1 2 C-0.67 1.34 -0.34 0.68 0 0 Z " fill="#085982" transform="translate(240,82)"/>
<path d="M0 0 C0.66 0 1.32 0 2 0 C2.22577402 5.4185766 1.46670113 9.77487721 0 15 C-0.66 14.67 -1.32 14.34 -2 14 C-2.66 14.99 -3.32 15.98 -4 17 C-3.85831863 15.56208484 -3.71148957 14.1246763 -3.5625 12.6875 C-3.48128906 11.88699219 -3.40007812 11.08648437 -3.31640625 10.26171875 C-3 8 -3 8 -2 5 C-1.34 5 -0.68 5 0 5 C0 3.35 0 1.7 0 0 Z " fill="#1661A2" transform="translate(302,194)"/>
<path d="M0 0 C2.125 0.9375 2.125 0.9375 4 2 C2.2335343 3.0076952 0.46166177 4.00591714 -1.3125 5 C-2.79169922 5.8353125 -2.79169922 5.8353125 -4.30078125 6.6875 C-7 8 -7 8 -10 8 C-9.375 5.625 -9.375 5.625 -8 3 C-5 1.75 -5 1.75 -2 1 C-1.34 0.67 -0.68 0.34 0 0 Z " fill="#035E84" transform="translate(111,69)"/>
<path d="M0 0 C0.33 0 0.66 0 1 0 C1.56191279 3.85311627 1.75343265 5.89852497 -0.48828125 9.17578125 C-2.26619453 11.18927724 -4.08580841 13.11612366 -6 15 C-6.66 15.66 -7.32 16.32 -8 17 C-7.41234113 12.6007204 -5.76040283 9.48108589 -3.5 5.6875 C-2.8709375 4.61886719 -2.241875 3.55023438 -1.59375 2.44921875 C-1.0678125 1.64097656 -0.541875 0.83273438 0 0 Z " fill="#1357A4" transform="translate(271,226)"/>
<path d="M0 0 C5.28458761 0.41447746 8.22237449 1.22237449 12 5 C13.8125 7.75 13.8125 7.75 15 10 C11.22454612 8.90931332 8.52956528 8.0916909 6 5 C6.33 4.67 6.66 4.34 7 4 C4.69 3.34 2.38 2.68 0 2 C0 1.34 0 0.68 0 0 Z " fill="#066AA4" transform="translate(238,58)"/>
<path d="M0 0 C0.66 0 1.32 0 2 0 C4.66514806 12.66970387 4.66514806 12.66970387 2 18 C1.67 18 1.34 18 1 18 C0.6392073 15.18820232 0.2860722 12.37581501 -0.0625 9.5625 C-0.2181543 8.35883789 -0.2181543 8.35883789 -0.37695312 7.13085938 C-0.62644343 5.09192132 -0.81780318 3.04604939 -1 1 C-0.67 0.67 -0.34 0.34 0 0 Z " fill="#0C669C" transform="translate(282,150)"/>
<path d="M0 0 C0.99 0.33 1.98 0.66 3 1 C1.43910974 2.41844009 -0.1237889 3.83467025 -1.6875 5.25 C-2.55761719 6.03890625 -3.42773438 6.8278125 -4.32421875 7.640625 C-6.82420863 9.84499564 -9.37945728 11.94133941 -12 14 C-11.47120643 9.945916 -9.43668381 8.09470993 -6.5625 5.3125 C-5.75941406 4.52488281 -4.95632812 3.73726563 -4.12890625 2.92578125 C-2 1 -2 1 0 0 Z " fill="#015B85" transform="translate(91,83)"/>
<path d="M0 0 C2 1 2 1 2.78125 2.92578125 C3.0184375 3.71339844 3.255625 4.50101563 3.5 5.3125 C4.23296222 7.72251165 4.95783227 9.91641753 6.09375 12.16796875 C7 14 7 14 7 16 C5.68 16 4.36 16 3 16 C2.49193553 14.27318563 1.99389533 12.54342021 1.5 10.8125 C1.08234375 9.36810547 1.08234375 9.36810547 0.65625 7.89453125 C0.03322392 5.14654124 -0.12302812 2.80401584 0 0 Z " fill="#264B91" transform="translate(29,199)"/>
<path d="M0 0 C0.66 0.33 1.32 0.66 2 1 C1.16855469 1.77923828 1.16855469 1.77923828 0.3203125 2.57421875 C-0.76636719 3.62029297 -0.76636719 3.62029297 -1.875 4.6875 C-2.59429687 5.37199219 -3.31359375 6.05648437 -4.0546875 6.76171875 C-6.09038738 9.10399993 -6.91268085 11.12637082 -8 14 C-10.125 15.3125 -10.125 15.3125 -12 16 C-10.69425949 10.88209754 -8.68383644 8.2385115 -4.875 4.625 C-3.96492188 3.75101562 -3.05484375 2.87703125 -2.1171875 1.9765625 C-1.06917969 0.99816406 -1.06917969 0.99816406 0 0 Z " fill="#0869A0" transform="translate(86,85)"/>
<path d="M0 0 C0.33 0 0.66 0 1 0 C1.33 5.94 1.66 11.88 2 18 C1.34 18 0.68 18 0 18 C-1.52491129 14.95017742 -1.14361434 11.77877461 -1.125 8.4375 C-1.12886719 7.73947266 -1.13273438 7.04144531 -1.13671875 6.32226562 C-1.12663994 1.12663994 -1.12663994 1.12663994 0 0 Z " fill="#2A5694" transform="translate(218,265)"/>
<path d="M0 0 C0.33 0 0.66 0 1 0 C1.50567729 2.56149628 2.00470132 5.12399465 2.5 7.6875 C2.64308594 8.40873047 2.78617188 9.12996094 2.93359375 9.87304688 C3.65571887 13.63841359 4.1824976 17.14473813 4 21 C1.43488754 18.43488754 1.27631868 16.34211929 0.5625 12.875 C0.09524327 10.77917672 0.09524327 10.77917672 -2 9 C-1.34 9 -0.68 9 0 9 C0 6.03 0 3.06 0 0 Z " fill="#1A3D77" transform="translate(30,189)"/>
<path d="M0 0 C0.33 0.99 0.66 1.98 1 3 C-0.14453125 4.82421875 -0.14453125 4.82421875 -1.8125 6.6875 C-2.35519531 7.31011719 -2.89789063 7.93273437 -3.45703125 8.57421875 C-5 10 -5 10 -7 10 C-6.4994925 6.29624453 -5.93330887 4.36921101 -3 2 C-2.01 1.34 -1.02 0.68 0 0 Z " fill="#175889" transform="translate(278,254)"/>
<path d="M0 0 C2.1640625 0.2421875 2.1640625 0.2421875 4.625 0.875 C5.44226563 1.07867187 6.25953125 1.28234375 7.1015625 1.4921875 C8.04128906 1.74355469 8.04128906 1.74355469 9 2 C9 2.66 9 3.32 9 4 C9.66 4.33 10.32 4.66 11 5 C2.80743982 5.4726477 2.80743982 5.4726477 -0.5625 3.5 C-1.036875 3.005 -1.51125 2.51 -2 2 C-1.34 1.34 -0.68 0.68 0 0 Z " fill="#1A5289" transform="translate(88,224)"/>
<path d="M0 0 C2.10495964 0.06005591 4.20911435 0.14885359 6.3125 0.25 C7.48425781 0.29640625 8.65601563 0.3428125 9.86328125 0.390625 C13 1 13 1 14.91796875 3.046875 C15.27503906 3.69140625 15.63210937 4.3359375 16 5 C14.0830014 4.68954268 12.16641277 4.37655329 10.25 4.0625 C9.18265625 3.88847656 8.1153125 3.71445312 7.015625 3.53515625 C4.63652407 3.11295829 2.33084789 2.62797116 0 2 C0 1.34 0 0.68 0 0 Z " fill="#086393" transform="translate(186,38)"/>
<path d="M0 0 C5.45479185 0.56820748 9.91059256 1.94637945 15 4 C15 4.33 15 4.66 15 5 C9.1977825 5.36263859 5.36000789 4.25684543 0 2 C0 1.34 0 0.68 0 0 Z " fill="#2E3469" transform="translate(109,300)"/>
<path d="M0 0 C1.875 0.625 1.875 0.625 4 2 C5.66783878 5.75263725 6.24045528 8.91226018 6 13 C5.01 13.495 5.01 13.495 4 14 C3.32739649 12.23141309 2.66211605 10.46003984 2 8.6875 C1.62875 7.70136719 1.2575 6.71523437 0.875 5.69921875 C0 3 0 3 0 0 Z " fill="#105D9E" transform="translate(293,122)"/>
<path d="M0 0 C0.33 0.66 0.66 1.32 1 2 C1.66 2.33 2.32 2.66 3 3 C1.75627811 3.98712878 0.50472782 4.96439905 -0.75 5.9375 C-1.44609375 6.48277344 -2.1421875 7.02804688 -2.859375 7.58984375 C-4.96092128 8.97425654 -6.54321799 9.56286987 -9 10 C-8.67 9.01 -8.34 8.02 -8 7 C-7.030625 6.525625 -6.06125 6.05125 -5.0625 5.5625 C-1.89788363 3.94789981 -1.12529972 3.26336918 0 0 Z " fill="#0F4F79" transform="translate(250,219)"/>
<path d="M0 0 C5.73491451 -0.88229454 8.76938812 1.49896975 13.2421875 4.6875 C13.82226562 5.120625 14.40234375 5.55375 15 6 C14.34 6.66 13.68 7.32 13 8 C11.39528272 7.04258894 9.79124671 6.08403595 8.1875 5.125 C7.29417969 4.59132813 6.40085938 4.05765625 5.48046875 3.5078125 C3.62705276 2.38116908 1.80470083 1.20313389 0 0 Z " fill="#02577E" transform="translate(220,72)"/>
<path d="M0 0 C-0.33 4.62 -0.66 9.24 -1 14 C-1.66 14 -2.32 14 -3 14 C-3.24915939 12.23186888 -3.47366632 10.46025018 -3.6875 8.6875 C-3.81511719 7.70136719 -3.94273438 6.71523437 -4.07421875 5.69921875 C-4 3 -4 3 -2.58203125 1.14453125 C-1 0 -1 0 0 0 Z " fill="#265591" transform="translate(31,184)"/>
<path d="M0 0 C-1 3 -1 3 -2.99609375 4.203125 C-3.80175781 4.54859375 -4.60742188 4.8940625 -5.4375 5.25 C-6.24058594 5.60578125 -7.04367188 5.9615625 -7.87109375 6.328125 C-10 7 -10 7 -12 6 C-11 3 -11 3 -8.25 1.3125 C-5.14979295 0.06049331 -3.28328088 -0.28970125 0 0 Z " fill="#0A699C" transform="translate(103,53)"/>
<path d="M0 0 C0.66 0.33 1.32 0.66 2 1 C1.34 1.66 0.68 2.32 0 3 C-0.4021875 4.2065625 -0.4021875 4.2065625 -0.8125 5.4375 C-2.28960796 8.62494348 -3.91275861 9.45637931 -7 11 C-6.40716379 7.60807637 -5.23256811 5.7892243 -2.9375 3.25 C-2.38964844 2.63640625 -1.84179688 2.0228125 -1.27734375 1.390625 C-0.85582031 0.93171875 -0.43429688 0.4728125 0 0 Z " fill="#056FA0" transform="translate(61,83)"/>
<path d="M0 0 C5.65394631 -0.34615998 9.03006806 0.56574762 14 3 C14 3.66 14 4.32 14 5 C8.94744036 4.36843005 4.70406799 2.86540627 0 1 C0 0.67 0 0.34 0 0 Z " fill="#0385B2" transform="translate(210,44)"/>
<path d="M0 0 C0.66 0.33 1.32 0.66 2 1 C1.01 2.485 1.01 2.485 0 4 C0.66 4.33 1.32 4.66 2 5 C-0.64738916 6.4606285 -1.89448334 7 -5 7 C-5.33 6.01 -5.66 5.02 -6 4 C-4.02 2.68 -2.04 1.36 0 0 Z " fill="#212E66" transform="translate(258,292)"/>
<path d="M0 0 C0.2475 0.5775 0.495 1.155 0.75 1.75 C1.93990475 4.13449889 1.93990475 4.13449889 4.125 6.125 C6 8 6 8 6 10 C8.64 10 11.28 10 14 10 C14 10.33 14 10.66 14 11 C9.15564006 11.47493725 6.0436741 11.72418203 1.9375 8.875 C-0.28517401 5.57683856 -0.45291114 3.89503578 0 0 Z " fill="#25558E" transform="translate(234,271)"/>
<path d="M0 0 C0.66 0.33 1.32 0.66 2 1 C1.67 2.32 1.34 3.64 1 5 C-2.32534757 6.10844919 -4.62182575 5.84454356 -8 5 C-5.56159764 2.56159764 -3.14759102 1.37707107 0 0 Z " fill="#1E3C70" transform="translate(184,270)"/>
<path d="M0 0 C-0.33 0.66 -0.66 1.32 -1 2 C-0.01 2.66 0.98 3.32 2 4 C-0.97 3.67 -3.94 3.34 -7 3 C-7 2.34 -7 1.68 -7 1 C-7.99 0.67 -8.98 0.34 -10 0 C-6.7169902 -1.6415049 -3.57454967 -0.51888624 0 0 Z " fill="#08699A" transform="translate(213,43)"/>
<path d="M0 0 C1.4800841 0.11362262 2.95910074 0.24122908 4.4375 0.375 C5.26121094 0.44460938 6.08492187 0.51421875 6.93359375 0.5859375 C7.95646484 0.79089844 7.95646484 0.79089844 9 1 C9.33 1.66 9.66 2.32 10 3 C9.21625 3.144375 8.4325 3.28875 7.625 3.4375 C5.03578982 3.87798925 5.03578982 3.87798925 3 5 C0.875 4.0625 0.875 4.0625 -1 3 C-0.34 2.67 0.32 2.34 1 2 C0.67 1.34 0.34 0.68 0 0 Z " fill="#26285E" transform="translate(122,302)"/>
<path d="M0 0 C3.16115776 1.36983503 3.9927092 1.9890638 6 5 C5.625 8.6875 5.625 8.6875 5 12 C4.01 11.67 3.02 11.34 2 11 C2.33 10.67 2.66 10.34 3 10 C3.47274656 5.74528094 2.39014869 3.48563351 0 0 Z " fill="#2147A7" transform="translate(247,267)"/>
<path d="M0 0 C1.06671952 3.20015856 0.94845472 4.88544294 0.5625 8.1875 C0.46066406 9.08855469 0.35882813 9.98960937 0.25390625 10.91796875 C0.17011719 11.60503906 0.08632812 12.29210937 0 13 C-0.66 13 -1.32 13 -2 13 C-3.46845421 7.52667068 -2.44038726 4.88077452 0 0 Z " fill="#363D85" transform="translate(141,263)"/>
<path d="M0 0 C1.98 0.66 3.96 1.32 6 2 C4.66666667 2.66666667 3.33333333 3.33333333 2 4 C1.319375 4.37125 0.63875 4.7425 -0.0625 5.125 C-2 6 -2 6 -5 6 C-4.67 5.01 -4.34 4.02 -4 3 C-1.9375 2.3125 -1.9375 2.3125 0 2 C0 1.34 0 0.68 0 0 Z " fill="#02557C" transform="translate(126,61)"/>
<path d="M0 0 C0.33 0.66 0.66 1.32 1 2 C-3.455 2.495 -3.455 2.495 -8 3 C-8.66 2.01 -9.32 1.02 -10 0 C-3.34250344 -1.36176066 -3.34250344 -1.36176066 0 0 Z " fill="#2D337C" transform="translate(136,305)"/>
<path d="M0 0 C4.95696581 1.23924145 7.11658466 2.78577758 10 7 C9.01 7.33 8.02 7.66 7 8 C4.3125 6.0625 4.3125 6.0625 2 4 C2.33 3.67 2.66 3.34 3 3 C2.01 2.01 1.02 1.02 0 0 Z " fill="#252A5D" transform="translate(94,290)"/>
<path d="M0 0 C4.29 0 8.58 0 13 0 C14 4 14 4 13 6 C12.01 5.01 11.02 4.02 10 3 C10.33 2.67 10.66 2.34 11 2 C7.37 1.67 3.74 1.34 0 1 C0 0.67 0 0.34 0 0 Z " fill="#0D5084" transform="translate(202,193)"/>
<path d="M0 0 C1.32 0.33 2.64 0.66 4 1 C1.36 3.97 -1.28 6.94 -4 10 C-4 5.75354935 -2.18249194 3.61475228 0 0 Z " fill="#086193" transform="translate(65,78)"/>
<path d="M0 0 C-7.38461538 0.36923077 -7.38461538 0.36923077 -10.5 -1.5 C-10.995 -1.995 -11.49 -2.49 -12 -3 C-7.15149569 -4.79574234 -4.07880723 -2.71920482 0 0 Z " fill="#066CA1" transform="translate(232,52)"/>
<path d="M0 0 C4.87685861 1.35468295 6.48592381 3.71675909 9 8 C8.01 8.495 8.01 8.495 7 9 C4.03595495 6.19195732 1.55500981 3.81684226 0 0 Z " fill="#066D9B" transform="translate(271,86)"/>
<path d="M0 0 C2.475 0.495 2.475 0.495 5 1 C5 1.66 5 2.32 5 3 C5.66 3 6.32 3 7 3 C6.67 3.99 6.34 4.98 6 6 C4.02 5.34 2.04 4.68 0 4 C0 2.68 0 1.36 0 0 Z " fill="#055F88" transform="translate(214,66)"/>
<path d="M0 0 C0.66 0 1.32 0 2 0 C4 2 4 2 6 5 C5.67 5.66 5.34 6.32 5 7 C3.0625 6.3125 3.0625 6.3125 1 5 C0.25 2.375 0.25 2.375 0 0 Z " fill="#2C4487" transform="translate(219,284)"/>
<path d="M0 0 C0.66 0 1.32 0 2 0 C1.71125 0.70125 1.4225 1.4025 1.125 2.125 C-0.02133588 5.05452503 -1.02625654 8.00921653 -2 11 C-2.66 10.01 -3.32 9.02 -4 8 C-2.68 5.36 -1.36 2.72 0 0 Z " fill="#26528A" transform="translate(222,256)"/>
<path d="M0 0 C0.33 1.32 0.66 2.64 1 4 C-1.64 5.98 -4.28 7.96 -7 10 C-2.66666667 1.33333333 -2.66666667 1.33333333 0 0 Z " fill="#0C4C9D" transform="translate(89,146)"/>
<path d="M0 0 C1.65 0.33 3.3 0.66 5 1 C3.68 2.32 2.36 3.64 1 5 C0.01 4.67 -0.98 4.34 -2 4 C-1.34 2.68 -0.68 1.36 0 0 Z " fill="#056997" transform="translate(96,77)"/>
<path d="M0 0 C2.31 1.98 4.62 3.96 7 6 C6.34 6.66 5.68 7.32 5 8 C3.0625 7.375 3.0625 7.375 1 6 C0.25 2.875 0.25 2.875 0 0 Z " fill="#2D377C" transform="translate(59,259)"/>
<path d="M0 0 C1.485 0.99 1.485 0.99 3 2 C3 2.99 3 3.98 3 5 C3.66 5 4.32 5 5 5 C4.67 5.99 4.34 6.98 4 8 C2 6.8125 2 6.8125 0 5 C-0.25 2.3125 -0.25 2.3125 0 0 Z " fill="#08618E" transform="translate(255,95)"/>
<path d="M0 0 C1.65 0 3.3 0 5 0 C5 0.66 5 1.32 5 2 C5.99 2 6.98 2 8 2 C8 2.66 8 3.32 8 4 C5.69 4 3.38 4 1 4 C0.67 2.68 0.34 1.36 0 0 Z " fill="#323785" transform="translate(112,279)"/>
<path d="M0 0 C3.96 1.98 3.96 1.98 8 4 C8 4.66 8 5.32 8 6 C4.54074837 4.7508258 1.85306797 3.32472205 -1 1 C-0.67 0.67 -0.34 0.34 0 0 Z " fill="#3C447D" transform="translate(103,273)"/>
<path d="M0 0 C1.95803507 -0.05389087 3.91648909 -0.09274217 5.875 -0.125 C7.51082031 -0.15980469 7.51082031 -0.15980469 9.1796875 -0.1953125 C12 0 12 0 14 2 C13.01 2.33 12.02 2.66 11 3 C10.34 2.67 9.68 2.34 9 2 C7.46331135 1.77532169 5.92031946 1.59203195 4.375 1.4375 C3.55773437 1.35371094 2.74046875 1.26992187 1.8984375 1.18359375 C1.27195313 1.12300781 0.64546875 1.06242188 0 1 C0 0.67 0 0.34 0 0 Z " fill="#0F5587" transform="translate(177,147)"/>
<path d="M0 0 C0 0.33 0 0.66 0 1 C-4.0527516 1.98248524 -7.83861737 2.08159574 -12 2 C-8.15820154 -2.0018734 -5.05897886 -0.92747946 0 0 Z " fill="#00445D" transform="translate(155,59)"/>
<path d="M0 0 C-2.76223278 2.76223278 -5.20706617 2.57856291 -9 3 C-9.33 2.34 -9.66 1.68 -10 1 C-6.78548731 -0.60725635 -3.56387464 -0.05748185 0 0 Z " fill="#2A4F95" transform="translate(247,265)"/>
<path d="M0 0 C2.39223697 2.39223697 2.6758631 3.67759676 3 7 C2.01 8.485 2.01 8.485 1 10 C0.34 8.35 -0.32 6.7 -1 5 C-0.34 5 0.32 5 1 5 C0.67 3.35 0.34 1.7 0 0 Z " fill="#055F91" transform="translate(276,127)"/>
<path d="M0 0 C1.98 0 3.96 0 6 0 C6 1.32 6 2.64 6 4 C4.125 3.6875 4.125 3.6875 2 3 C1.34 2.01 0.68 1.02 0 0 Z " fill="#363B7F" transform="translate(121,283)"/>
<path d="M0 0 C0.928125 0.20625 1.85625 0.4125 2.8125 0.625 C2.4825 1.285 2.1525 1.945 1.8125 2.625 C-0.8275 2.295 -3.4675 1.965 -6.1875 1.625 C-3.1875 -0.375 -3.1875 -0.375 0 0 Z " fill="#20467B" transform="translate(253.1875,249.375)"/>
<path d="M0 0 C0.33 0.66 0.66 1.32 1 2 C1.99 2.33 2.98 2.66 4 3 C5.1875 5.5625 5.1875 5.5625 6 8 C2.57701423 6.85900474 1.85241234 5.99914379 0 3 C0 2.01 0 1.02 0 0 Z " fill="#303772" transform="translate(48,247)"/>
<path d="M0 0 C2.52259061 1.97420135 2.9929808 2.96745642 3.6875 6.1875 C3.790625 7.115625 3.89375 8.04375 4 9 C1.47740939 7.02579865 1.0070192 6.03254358 0.3125 2.8125 C0.209375 1.884375 0.10625 0.95625 0 0 Z " fill="#39408A" transform="translate(39,229)"/>
<path d="M0 0 C0 2.31 0 4.62 0 7 C-0.99 6.67 -1.98 6.34 -3 6 C-3 4.35 -3 2.7 -3 1 C-1 0 -1 0 0 0 Z " fill="#0E6CAA" transform="translate(191,149)"/>
<path d="M0 0 C0.33 0.99 0.66 1.98 1 3 C-1.31 4.65 -3.62 6.3 -6 8 C-4.55746343 4.63408134 -2.66735273 2.48952921 0 0 Z " fill="#0285AE" transform="translate(80,64)"/>
<path d="M0 0 C3.77545388 1.09068668 6.47043472 1.9083091 9 5 C2.25 3.125 2.25 3.125 0 2 C0 1.34 0 0.68 0 0 Z " fill="#0869A0" transform="translate(229,53)"/>
</svg>
